<svg xmlns="http://www.w3.org/2000/svg" width="1200" height="1010" viewBox="0 0 1200 1010">
<rect width="1200" height="1010" fill="#efeee8"/>
<style>text{font-family:Arial,sans-serif;fill:#353a36}.small{font-size:15px;fill:#656b64}</style>
<text x="48" y="54" font-size="30" font-weight="bold">Standing Stone · upright silhouette studies</text>
<text x="48" y="83" class="small">Six possible members of one signature-selected family. These are sketches, not in-game renders.</text>
<g transform="translate(48,120)">
<path d="M0,0H350" stroke="#cbcfc4"/>
<text x="0" y="28" font-size="20" font-weight="bold">A · Straight monolith</text>
<text x="0" y="52" class="small">10 wide · 30 high · 1 solid</text>
<g transform="translate(187,295)">
<path d="M-110,38V-155M-115,38H-105M-115,-58H-105M-115,-154H-105" fill="none" stroke="#c3c7bd"/>
<text x="-128" y="-53" font-size="12" fill="#818879">1</text>
<text x="-128" y="-148" font-size="12" fill="#818879">2</text>
<polygon points="48.00,47.70 12.00,63.60 12.00,-116.40 48.00,-132.30" fill="#70796b" stroke="#595a54" stroke-width="1.3" stroke-linejoin="round"/><polygon points="-48.00,37.10 12.00,63.60 12.00,-116.40 -48.00,-142.90" fill="#929b8a" stroke="#595a54" stroke-width="1.3" stroke-linejoin="round"/><polygon points="-12.00,-158.80 48.00,-132.30 12.00,-116.40 -48.00,-142.90" fill="#abb2a2" stroke="#595a54" stroke-width="1.3" stroke-linejoin="round"/>
<polyline points="-24.18,-84.22 -18.18,-87.57 -12.18,-78.92 -18.18,-75.57 -24.18,-84.22 -18.18,-81.57 -18.18,-69.57" fill="none" stroke="#414c4b" stroke-width="4" stroke-linecap="square" stroke-linejoin="miter"/><polyline points="-24.18,-84.22 -18.18,-87.57 -12.18,-78.92 -18.18,-75.57 -24.18,-84.22 -18.18,-81.57 -18.18,-69.57" fill="none" stroke="#9ee1dd" stroke-width="2.4" stroke-linecap="square" stroke-linejoin="miter"/><polyline points="-24.18,-48.22 -18.18,-51.57 -18.18,-63.57 -18.18,-51.57 -12.18,-54.92" fill="none" stroke="#414c4b" stroke-width="4" stroke-linecap="square" stroke-linejoin="miter"/><polyline points="-24.18,-48.22 -18.18,-51.57 -18.18,-63.57 -18.18,-51.57 -12.18,-54.92" fill="none" stroke="#9ee1dd" stroke-width="2.4" stroke-linecap="square" stroke-linejoin="miter"/><polyline points="-24.18,-30.22 -18.18,-39.57 -12.18,-24.92 -18.18,-33.57 -18.18,-21.57" fill="none" stroke="#414c4b" stroke-width="4" stroke-linecap="square" stroke-linejoin="miter"/><polyline points="-24.18,-30.22 -18.18,-39.57 -12.18,-24.92 -18.18,-33.57 -18.18,-21.57" fill="none" stroke="#9ee1dd" stroke-width="2.4" stroke-linecap="square" stroke-linejoin="miter"/><polyline points="-24.18,-12.22 -18.18,-3.57 -12.18,-6.92 -18.18,-15.57 -24.18,-12.22" fill="none" stroke="#414c4b" stroke-width="4" stroke-linecap="square" stroke-linejoin="miter"/><polyline points="-24.18,-12.22 -18.18,-3.57 -12.18,-6.92 -18.18,-15.57 -24.18,-12.22" fill="none" stroke="#9ee1dd" stroke-width="2.4" stroke-linecap="square" stroke-linejoin="miter"/>
</g></g>
<g transform="translate(422,120)">
<path d="M0,0H350" stroke="#cbcfc4"/>
<text x="0" y="28" font-size="20" font-weight="bold">B · Broad shoulders</text>
<text x="0" y="52" class="small">12 wide · 28 high · 2 solids</text>
<g transform="translate(187,295)">
<path d="M-110,38V-155M-115,38H-105M-115,-58H-105M-115,-154H-105" fill="none" stroke="#c3c7bd"/>
<text x="-128" y="-53" font-size="12" fill="#818879">1</text>
<text x="-128" y="-148" font-size="12" fill="#818879">2</text>
<polygon points="54.00,50.35 18.00,66.25 18.00,-77.75 54.00,-93.65" fill="#70796b" stroke="#595a54" stroke-width="1.3" stroke-linejoin="round"/><polygon points="-54.00,34.45 18.00,66.25 18.00,-77.75 -54.00,-109.55" fill="#929b8a" stroke="#595a54" stroke-width="1.3" stroke-linejoin="round"/><polygon points="-18.00,-125.45 54.00,-93.65 18.00,-77.75 -54.00,-109.55" fill="#abb2a2" stroke="#595a54" stroke-width="1.3" stroke-linejoin="round"/>
<polygon points="48.00,-96.30 12.00,-80.40 12.00,-104.40 48.00,-120.30" fill="#70796b" stroke="#595a54" stroke-width="1.3" stroke-linejoin="round"/><polygon points="-48.00,-106.90 12.00,-80.40 12.00,-104.40 -48.00,-130.90" fill="#929b8a" stroke="#595a54" stroke-width="1.3" stroke-linejoin="round"/><polygon points="-12.00,-146.80 48.00,-120.30 12.00,-104.40 -48.00,-130.90" fill="#abb2a2" stroke="#595a54" stroke-width="1.3" stroke-linejoin="round"/>
<polyline points="-24.18,-84.22 -18.18,-87.57 -12.18,-78.92 -18.18,-75.57 -24.18,-84.22 -18.18,-81.57 -18.18,-69.57" fill="none" stroke="#414c4b" stroke-width="4" stroke-linecap="square" stroke-linejoin="miter"/><polyline points="-24.18,-84.22 -18.18,-87.57 -12.18,-78.92 -18.18,-75.57 -24.18,-84.22 -18.18,-81.57 -18.18,-69.57" fill="none" stroke="#9ee1dd" stroke-width="2.4" stroke-linecap="square" stroke-linejoin="miter"/><polyline points="-24.18,-48.22 -18.18,-51.57 -18.18,-63.57 -18.18,-51.57 -12.18,-54.92" fill="none" stroke="#414c4b" stroke-width="4" stroke-linecap="square" stroke-linejoin="miter"/><polyline points="-24.18,-48.22 -18.18,-51.57 -18.18,-63.57 -18.18,-51.57 -12.18,-54.92" fill="none" stroke="#9ee1dd" stroke-width="2.4" stroke-linecap="square" stroke-linejoin="miter"/><polyline points="-24.18,-30.22 -18.18,-39.57 -12.18,-24.92 -18.18,-33.57 -18.18,-21.57" fill="none" stroke="#414c4b" stroke-width="4" stroke-linecap="square" stroke-linejoin="miter"/><polyline points="-24.18,-30.22 -18.18,-39.57 -12.18,-24.92 -18.18,-33.57 -18.18,-21.57" fill="none" stroke="#9ee1dd" stroke-width="2.4" stroke-linecap="square" stroke-linejoin="miter"/><polyline points="-24.18,-12.22 -18.18,-3.57 -12.18,-6.92 -18.18,-15.57 -24.18,-12.22" fill="none" stroke="#414c4b" stroke-width="4" stroke-linecap="square" stroke-linejoin="miter"/><polyline points="-24.18,-12.22 -18.18,-3.57 -12.18,-6.92 -18.18,-15.57 -24.18,-12.22" fill="none" stroke="#9ee1dd" stroke-width="2.4" stroke-linecap="square" stroke-linejoin="miter"/>
</g></g>
<g transform="translate(796,120)">
<path d="M0,0H350" stroke="#cbcfc4"/>
<text x="0" y="28" font-size="20" font-weight="bold">C · Deep crown notch</text>
<text x="0" y="52" class="small">10 wide · 31 high · 3 solids</text>
<g transform="translate(187,295)">
<path d="M-110,38V-155M-115,38H-105M-115,-58H-105M-115,-154H-105" fill="none" stroke="#c3c7bd"/>
<text x="-128" y="-53" font-size="12" fill="#818879">1</text>
<text x="-128" y="-148" font-size="12" fill="#818879">2</text>
<polygon points="48.00,47.70 12.00,63.60 12.00,-86.40 48.00,-102.30" fill="#70796b" stroke="#595a54" stroke-width="1.3" stroke-linejoin="round"/><polygon points="-48.00,37.10 12.00,63.60 12.00,-86.40 -48.00,-112.90" fill="#929b8a" stroke="#595a54" stroke-width="1.3" stroke-linejoin="round"/><polygon points="-12.00,-128.80 48.00,-102.30 12.00,-86.40 -48.00,-112.90" fill="#abb2a2" stroke="#595a54" stroke-width="1.3" stroke-linejoin="round"/>
<polygon points="6.00,-120.85 -30.00,-104.95 -30.00,-140.95 6.00,-156.85" fill="#70796b" stroke="#595a54" stroke-width="1.3" stroke-linejoin="round"/><polygon points="-48.00,-112.90 -30.00,-104.95 -30.00,-140.95 -48.00,-148.90" fill="#929b8a" stroke="#595a54" stroke-width="1.3" stroke-linejoin="round"/><polygon points="-12.00,-164.80 6.00,-156.85 -30.00,-140.95 -48.00,-148.90" fill="#abb2a2" stroke="#595a54" stroke-width="1.3" stroke-linejoin="round"/>
<polygon points="48.00,-102.30 12.00,-86.40 12.00,-122.40 48.00,-138.30" fill="#70796b" stroke="#595a54" stroke-width="1.3" stroke-linejoin="round"/><polygon points="-6.00,-94.35 12.00,-86.40 12.00,-122.40 -6.00,-130.35" fill="#929b8a" stroke="#595a54" stroke-width="1.3" stroke-linejoin="round"/><polygon points="30.00,-146.25 48.00,-138.30 12.00,-122.40 -6.00,-130.35" fill="#abb2a2" stroke="#595a54" stroke-width="1.3" stroke-linejoin="round"/>
<polyline points="-24.18,-84.22 -18.18,-87.57 -12.18,-78.92 -18.18,-75.57 -24.18,-84.22 -18.18,-81.57 -18.18,-69.57" fill="none" stroke="#414c4b" stroke-width="4" stroke-linecap="square" stroke-linejoin="miter"/><polyline points="-24.18,-84.22 -18.18,-87.57 -12.18,-78.92 -18.18,-75.57 -24.18,-84.22 -18.18,-81.57 -18.18,-69.57" fill="none" stroke="#9ee1dd" stroke-width="2.4" stroke-linecap="square" stroke-linejoin="miter"/><polyline points="-24.18,-48.22 -18.18,-51.57 -18.18,-63.57 -18.18,-51.57 -12.18,-54.92" fill="none" stroke="#414c4b" stroke-width="4" stroke-linecap="square" stroke-linejoin="miter"/><polyline points="-24.18,-48.22 -18.18,-51.57 -18.18,-63.57 -18.18,-51.57 -12.18,-54.92" fill="none" stroke="#9ee1dd" stroke-width="2.4" stroke-linecap="square" stroke-linejoin="miter"/><polyline points="-24.18,-30.22 -18.18,-39.57 -12.18,-24.92 -18.18,-33.57 -18.18,-21.57" fill="none" stroke="#414c4b" stroke-width="4" stroke-linecap="square" stroke-linejoin="miter"/><polyline points="-24.18,-30.22 -18.18,-39.57 -12.18,-24.92 -18.18,-33.57 -18.18,-21.57" fill="none" stroke="#9ee1dd" stroke-width="2.4" stroke-linecap="square" stroke-linejoin="miter"/><polyline points="-24.18,-12.22 -18.18,-3.57 -12.18,-6.92 -18.18,-15.57 -24.18,-12.22" fill="none" stroke="#414c4b" stroke-width="4" stroke-linecap="square" stroke-linejoin="miter"/><polyline points="-24.18,-12.22 -18.18,-3.57 -12.18,-6.92 -18.18,-15.57 -24.18,-12.22" fill="none" stroke="#9ee1dd" stroke-width="2.4" stroke-linecap="square" stroke-linejoin="miter"/>
</g></g>
<g transform="translate(48,482)">
<path d="M0,0H350" stroke="#cbcfc4"/>
<text x="0" y="28" font-size="20" font-weight="bold">D · Worn asymmetric crown</text>
<text x="0" y="52" class="small">10 wide · 31 high · 2 solids</text>
<g transform="translate(187,295)">
<path d="M-110,38V-155M-115,38H-105M-115,-58H-105M-115,-154H-105" fill="none" stroke="#c3c7bd"/>
<text x="-128" y="-53" font-size="12" fill="#818879">1</text>
<text x="-128" y="-148" font-size="12" fill="#818879">2</text>
<polygon points="48.00,47.70 12.00,63.60 12.00,-98.40 48.00,-114.30" fill="#70796b" stroke="#595a54" stroke-width="1.3" stroke-linejoin="round"/><polygon points="-48.00,37.10 12.00,63.60 12.00,-98.40 -48.00,-124.90" fill="#929b8a" stroke="#595a54" stroke-width="1.3" stroke-linejoin="round"/><polygon points="-12.00,-140.80 48.00,-114.30 12.00,-98.40 -48.00,-124.90" fill="#abb2a2" stroke="#595a54" stroke-width="1.3" stroke-linejoin="round"/>
<polygon points="30.00,-122.25 -6.00,-106.35 -6.00,-130.35 30.00,-146.25" fill="#70796b" stroke="#595a54" stroke-width="1.3" stroke-linejoin="round"/><polygon points="-48.00,-124.90 -6.00,-106.35 -6.00,-130.35 -48.00,-148.90" fill="#929b8a" stroke="#595a54" stroke-width="1.3" stroke-linejoin="round"/><polygon points="-12.00,-164.80 30.00,-146.25 -6.00,-130.35 -48.00,-148.90" fill="#abb2a2" stroke="#595a54" stroke-width="1.3" stroke-linejoin="round"/>
<polyline points="-24.18,-84.22 -18.18,-87.57 -12.18,-78.92 -18.18,-75.57 -24.18,-84.22 -18.18,-81.57 -18.18,-69.57" fill="none" stroke="#414c4b" stroke-width="4" stroke-linecap="square" stroke-linejoin="miter"/><polyline points="-24.18,-84.22 -18.18,-87.57 -12.18,-78.92 -18.18,-75.57 -24.18,-84.22 -18.18,-81.57 -18.18,-69.57" fill="none" stroke="#9ee1dd" stroke-width="2.4" stroke-linecap="square" stroke-linejoin="miter"/><polyline points="-24.18,-48.22 -18.18,-51.57 -18.18,-63.57 -18.18,-51.57 -12.18,-54.92" fill="none" stroke="#414c4b" stroke-width="4" stroke-linecap="square" stroke-linejoin="miter"/><polyline points="-24.18,-48.22 -18.18,-51.57 -18.18,-63.57 -18.18,-51.57 -12.18,-54.92" fill="none" stroke="#9ee1dd" stroke-width="2.4" stroke-linecap="square" stroke-linejoin="miter"/><polyline points="-24.18,-30.22 -18.18,-39.57 -12.18,-24.92 -18.18,-33.57 -18.18,-21.57" fill="none" stroke="#414c4b" stroke-width="4" stroke-linecap="square" stroke-linejoin="miter"/><polyline points="-24.18,-30.22 -18.18,-39.57 -12.18,-24.92 -18.18,-33.57 -18.18,-21.57" fill="none" stroke="#9ee1dd" stroke-width="2.4" stroke-linecap="square" stroke-linejoin="miter"/><polyline points="-24.18,-12.22 -18.18,-3.57 -12.18,-6.92 -18.18,-15.57 -24.18,-12.22" fill="none" stroke="#414c4b" stroke-width="4" stroke-linecap="square" stroke-linejoin="miter"/><polyline points="-24.18,-12.22 -18.18,-3.57 -12.18,-6.92 -18.18,-15.57 -24.18,-12.22" fill="none" stroke="#9ee1dd" stroke-width="2.4" stroke-linecap="square" stroke-linejoin="miter"/>
</g></g>
<g transform="translate(422,482)">
<path d="M0,0H350" stroke="#cbcfc4"/>
<text x="0" y="28" font-size="20" font-weight="bold">E · Stepped crown</text>
<text x="0" y="52" class="small">10 wide · 31 high · 3 solids</text>
<g transform="translate(187,295)">
<path d="M-110,38V-155M-115,38H-105M-115,-58H-105M-115,-154H-105" fill="none" stroke="#c3c7bd"/>
<text x="-128" y="-53" font-size="12" fill="#818879">1</text>
<text x="-128" y="-148" font-size="12" fill="#818879">2</text>
<polygon points="48.00,47.70 12.00,63.60 12.00,-86.40 48.00,-102.30" fill="#70796b" stroke="#595a54" stroke-width="1.3" stroke-linejoin="round"/><polygon points="-48.00,37.10 12.00,63.60 12.00,-86.40 -48.00,-112.90" fill="#929b8a" stroke="#595a54" stroke-width="1.3" stroke-linejoin="round"/><polygon points="-12.00,-128.80 48.00,-102.30 12.00,-86.40 -48.00,-112.90" fill="#abb2a2" stroke="#595a54" stroke-width="1.3" stroke-linejoin="round"/>
<polygon points="42.00,-104.95 6.00,-89.05 6.00,-107.05 42.00,-122.95" fill="#70796b" stroke="#595a54" stroke-width="1.3" stroke-linejoin="round"/><polygon points="-42.00,-110.25 6.00,-89.05 6.00,-107.05 -42.00,-128.25" fill="#929b8a" stroke="#595a54" stroke-width="1.3" stroke-linejoin="round"/><polygon points="-6.00,-144.15 42.00,-122.95 6.00,-107.05 -42.00,-128.25" fill="#abb2a2" stroke="#595a54" stroke-width="1.3" stroke-linejoin="round"/>
<polygon points="36.00,-125.60 0.00,-109.70 0.00,-127.70 36.00,-143.60" fill="#70796b" stroke="#595a54" stroke-width="1.3" stroke-linejoin="round"/><polygon points="-36.00,-125.60 0.00,-109.70 0.00,-127.70 -36.00,-143.60" fill="#929b8a" stroke="#595a54" stroke-width="1.3" stroke-linejoin="round"/><polygon points="0.00,-159.50 36.00,-143.60 0.00,-127.70 -36.00,-143.60" fill="#abb2a2" stroke="#595a54" stroke-width="1.3" stroke-linejoin="round"/>
<polyline points="-24.18,-84.22 -18.18,-87.57 -12.18,-78.92 -18.18,-75.57 -24.18,-84.22 -18.18,-81.57 -18.18,-69.57" fill="none" stroke="#414c4b" stroke-width="4" stroke-linecap="square" stroke-linejoin="miter"/><polyline points="-24.18,-84.22 -18.18,-87.57 -12.18,-78.92 -18.18,-75.57 -24.18,-84.22 -18.18,-81.57 -18.18,-69.57" fill="none" stroke="#9ee1dd" stroke-width="2.4" stroke-linecap="square" stroke-linejoin="miter"/><polyline points="-24.18,-48.22 -18.18,-51.57 -18.18,-63.57 -18.18,-51.57 -12.18,-54.92" fill="none" stroke="#414c4b" stroke-width="4" stroke-linecap="square" stroke-linejoin="miter"/><polyline points="-24.18,-48.22 -18.18,-51.57 -18.18,-63.57 -18.18,-51.57 -12.18,-54.92" fill="none" stroke="#9ee1dd" stroke-width="2.4" stroke-linecap="square" stroke-linejoin="miter"/><polyline points="-24.18,-30.22 -18.18,-39.57 -12.18,-24.92 -18.18,-33.57 -18.18,-21.57" fill="none" stroke="#414c4b" stroke-width="4" stroke-linecap="square" stroke-linejoin="miter"/><polyline points="-24.18,-30.22 -18.18,-39.57 -12.18,-24.92 -18.18,-33.57 -18.18,-21.57" fill="none" stroke="#9ee1dd" stroke-width="2.4" stroke-linecap="square" stroke-linejoin="miter"/><polyline points="-24.18,-12.22 -18.18,-3.57 -12.18,-6.92 -18.18,-15.57 -24.18,-12.22" fill="none" stroke="#414c4b" stroke-width="4" stroke-linecap="square" stroke-linejoin="miter"/><polyline points="-24.18,-12.22 -18.18,-3.57 -12.18,-6.92 -18.18,-15.57 -24.18,-12.22" fill="none" stroke="#9ee1dd" stroke-width="2.4" stroke-linecap="square" stroke-linejoin="miter"/>
</g></g>
<g transform="translate(796,482)">
<path d="M0,0H350" stroke="#cbcfc4"/>
<text x="0" y="28" font-size="20" font-weight="bold">F · Broad shallow notch</text>
<text x="0" y="52" class="small">12 wide · 28 high · 3 solids</text>
<g transform="translate(187,295)">
<path d="M-110,38V-155M-115,38H-105M-115,-58H-105M-115,-154H-105" fill="none" stroke="#c3c7bd"/>
<text x="-128" y="-53" font-size="12" fill="#818879">1</text>
<text x="-128" y="-148" font-size="12" fill="#818879">2</text>
<polygon points="54.00,50.35 18.00,66.25 18.00,-83.75 54.00,-99.65" fill="#70796b" stroke="#595a54" stroke-width="1.3" stroke-linejoin="round"/><polygon points="-54.00,34.45 18.00,66.25 18.00,-83.75 -54.00,-115.55" fill="#929b8a" stroke="#595a54" stroke-width="1.3" stroke-linejoin="round"/><polygon points="-18.00,-131.45 54.00,-99.65 18.00,-83.75 -54.00,-115.55" fill="#abb2a2" stroke="#595a54" stroke-width="1.3" stroke-linejoin="round"/>
<polygon points="6.00,-120.85 -30.00,-104.95 -30.00,-122.95 6.00,-138.85" fill="#70796b" stroke="#595a54" stroke-width="1.3" stroke-linejoin="round"/><polygon points="-54.00,-115.55 -30.00,-104.95 -30.00,-122.95 -54.00,-133.55" fill="#929b8a" stroke="#595a54" stroke-width="1.3" stroke-linejoin="round"/><polygon points="-18.00,-149.45 6.00,-138.85 -30.00,-122.95 -54.00,-133.55" fill="#abb2a2" stroke="#595a54" stroke-width="1.3" stroke-linejoin="round"/>
<polygon points="54.00,-99.65 18.00,-83.75 18.00,-101.75 54.00,-117.65" fill="#70796b" stroke="#595a54" stroke-width="1.3" stroke-linejoin="round"/><polygon points="-6.00,-94.35 18.00,-83.75 18.00,-101.75 -6.00,-112.35" fill="#929b8a" stroke="#595a54" stroke-width="1.3" stroke-linejoin="round"/><polygon points="30.00,-128.25 54.00,-117.65 18.00,-101.75 -6.00,-112.35" fill="#abb2a2" stroke="#595a54" stroke-width="1.3" stroke-linejoin="round"/>
<polyline points="-24.18,-84.22 -18.18,-87.57 -12.18,-78.92 -18.18,-75.57 -24.18,-84.22 -18.18,-81.57 -18.18,-69.57" fill="none" stroke="#414c4b" stroke-width="4" stroke-linecap="square" stroke-linejoin="miter"/><polyline points="-24.18,-84.22 -18.18,-87.57 -12.18,-78.92 -18.18,-75.57 -24.18,-84.22 -18.18,-81.57 -18.18,-69.57" fill="none" stroke="#9ee1dd" stroke-width="2.4" stroke-linecap="square" stroke-linejoin="miter"/><polyline points="-24.18,-48.22 -18.18,-51.57 -18.18,-63.57 -18.18,-51.57 -12.18,-54.92" fill="none" stroke="#414c4b" stroke-width="4" stroke-linecap="square" stroke-linejoin="miter"/><polyline points="-24.18,-48.22 -18.18,-51.57 -18.18,-63.57 -18.18,-51.57 -12.18,-54.92" fill="none" stroke="#9ee1dd" stroke-width="2.4" stroke-linecap="square" stroke-linejoin="miter"/><polyline points="-24.18,-30.22 -18.18,-39.57 -12.18,-24.92 -18.18,-33.57 -18.18,-21.57" fill="none" stroke="#414c4b" stroke-width="4" stroke-linecap="square" stroke-linejoin="miter"/><polyline points="-24.18,-30.22 -18.18,-39.57 -12.18,-24.92 -18.18,-33.57 -18.18,-21.57" fill="none" stroke="#9ee1dd" stroke-width="2.4" stroke-linecap="square" stroke-linejoin="miter"/><polyline points="-24.18,-12.22 -18.18,-3.57 -12.18,-6.92 -18.18,-15.57 -24.18,-12.22" fill="none" stroke="#414c4b" stroke-width="4" stroke-linecap="square" stroke-linejoin="miter"/><polyline points="-24.18,-12.22 -18.18,-3.57 -12.18,-6.92 -18.18,-15.57 -24.18,-12.22" fill="none" stroke="#9ee1dd" stroke-width="2.4" stroke-linecap="square" stroke-linejoin="miter"/>
</g></g>
<path d="M48,856H1152" stroke="#bfc6b9"/>
<text x="48" y="891" font-size="19" font-weight="bold">Same signature, different masonry</text>
<text x="48" y="920" class="small">Shape + rune identity stay the same across Tuff, Sandstone, Quartz and the other supported finishes.</text>
<text x="48" y="951" class="small">Recipe: attuned shard + Ender Pearl + two matching full masonry blocks. Dimensions use 1/16-block model units.</text>
<text x="48" y="980" class="small">Rune strokes shown here are illustrative; native stones will display the shard’s actual key-derived mark.</text>
</svg>