# Authored Vestige native monolith; units are blocks.
mtllib standing_stones.mtl
o monolith
v 0.93750000 0.00000000 0.25000000
v 0.31250000 0.00000000 0.25000000
v 0.10197368 1.00000000 0.25000000
v 0.20065789 1.00000000 0.25000000
vt 0.93750000 1.00000000
vt 0.31250000 1.00000000
vt 0.10197368 0.00000000
vt 0.20065789 0.00000000
vn 0.00000000 0.00000000 -1.00000000
vn 0.00000000 0.00000000 -1.00000000
vn 0.00000000 0.00000000 -1.00000000
vn 0.00000000 0.00000000 -1.00000000
usemtl stone
f 1/1/1 2/2/2 3/3/3 4/4/4
v 0.82638889 1.00000000 0.25000000
v 0.93750000 0.00000000 0.25000000
v 0.20065789 1.00000000 0.25000000
vt 0.82638889 0.00000000
vt 0.93750000 1.00000000
vt 0.20065789 0.00000000
vn 0.00000000 0.00000000 -1.00000000
vn 0.00000000 0.00000000 -1.00000000
vn 0.00000000 0.00000000 -1.00000000
usemtl stone
f 5/5/5 6/6/6 7/7/7
v 0.10197368 1.00000000 0.62500000
v 0.31250000 0.00000000 0.62500000
v 0.93750000 0.00000000 0.62500000
v 0.20065789 1.00000000 0.62500000
vt 0.10197368 0.00000000
vt 0.31250000 1.00000000
vt 0.93750000 1.00000000
vt 0.20065789 0.00000000
vn 0.00000000 0.00000000 1.00000000
vn 0.00000000 0.00000000 1.00000000
vn 0.00000000 0.00000000 1.00000000
vn 0.00000000 0.00000000 1.00000000
usemtl stone
f 8/8/8 9/9/9 10/10/10 11/11/11
v 0.20065789 1.00000000 0.62500000
v 0.93750000 0.00000000 0.62500000
v 0.82638889 1.00000000 0.62500000
vt 0.20065789 0.00000000
vt 0.93750000 1.00000000
vt 0.82638889 0.00000000
vn 0.00000000 0.00000000 1.00000000
vn 0.00000000 0.00000000 1.00000000
vn 0.00000000 0.00000000 1.00000000
usemtl stone
f 12/12/12 13/13/13 14/14/14
v 0.93750000 0.00000000 0.25000000
v 0.93750000 0.00000000 0.62500000
v 0.31250000 0.00000000 0.62500000
v 0.31250000 0.00000000 0.25000000
vt 0.93750000 0.25000000
vt 0.93750000 0.62500000
vt 0.31250000 0.62500000
vt 0.31250000 0.25000000
vn 0.00000000 -1.00000000 0.00000000
vn 0.00000000 -1.00000000 0.00000000
vn 0.00000000 -1.00000000 0.00000000
vn 0.00000000 -1.00000000 0.00000000
usemtl stone
f 15/15/15 16/16/16 17/17/17 18/18/18
v 0.82638889 1.00000000 0.62500000
v 0.93750000 0.00000000 0.62500000
v 0.93750000 0.00000000 0.25000000
v 0.82638889 1.00000000 0.25000000
vt 0.62500000 0.00000000
vt 0.62500000 1.00000000
vt 0.25000000 1.00000000
vt 0.25000000 0.00000000
vn 0.99388373 0.11043153 0.00000000
vn 0.99388373 0.11043153 0.00000000
vn 0.99388373 0.11043153 0.00000000
vn 0.99388373 0.11043153 0.00000000
usemtl stone
f 19/19/19 20/20/20 21/21/21 22/22/22
v 0.31250000 0.00000000 0.25000000
v 0.31250000 0.00000000 0.62500000
v 0.10197368 1.00000000 0.62500000
v 0.10197368 1.00000000 0.25000000
vt 0.25000000 1.00000000
vt 0.62500000 1.00000000
vt 0.62500000 0.00000000
vt 0.25000000 0.00000000
vn -0.97854978 -0.20601048 0.00000000
vn -0.97854978 -0.20601048 0.00000000
vn -0.97854978 -0.20601048 0.00000000
vn -0.97854978 -0.20601048 0.00000000
usemtl stone
f 23/23/23 24/24/24 25/25/25 26/26/26
