# Authored Vestige native monolith; units are blocks.
mtllib standing_stones.mtl
o monolith
v 0.75000000 0.00000000 0.31250000
v 0.25000000 0.00000000 0.31250000
v 0.11363636 1.00000000 0.31250000
v 0.25000000 1.00000000 0.31250000
vt 0.75000000 1.00000000
vt 0.25000000 1.00000000
vt 0.11363636 0.00000000
vt 0.25000000 0.00000000
vn 0.00000000 0.00000000 -1.00000000
vn 0.00000000 0.00000000 -1.00000000
vn 0.00000000 0.00000000 -1.00000000
vn 0.00000000 0.00000000 -1.00000000
usemtl stone
f 1/1/1 2/2/2 3/3/3 4/4/4
v 0.90789474 1.00000000 0.31250000
v 0.75000000 0.00000000 0.31250000
v 0.25000000 1.00000000 0.31250000
vt 0.90789474 0.00000000
vt 0.75000000 1.00000000
vt 0.25000000 0.00000000
vn 0.00000000 0.00000000 -1.00000000
vn 0.00000000 0.00000000 -1.00000000
vn 0.00000000 0.00000000 -1.00000000
usemtl stone
f 5/5/5 6/6/6 7/7/7
v 0.11363636 1.00000000 0.68750000
v 0.25000000 0.00000000 0.68750000
v 0.75000000 0.00000000 0.68750000
v 0.25000000 1.00000000 0.68750000
vt 0.11363636 0.00000000
vt 0.25000000 1.00000000
vt 0.75000000 1.00000000
vt 0.25000000 0.00000000
vn 0.00000000 0.00000000 1.00000000
vn 0.00000000 0.00000000 1.00000000
vn 0.00000000 0.00000000 1.00000000
vn 0.00000000 0.00000000 1.00000000
usemtl stone
f 8/8/8 9/9/9 10/10/10 11/11/11
v 0.25000000 1.00000000 0.68750000
v 0.75000000 0.00000000 0.68750000
v 0.90789474 1.00000000 0.68750000
vt 0.25000000 0.00000000
vt 0.75000000 1.00000000
vt 0.90789474 0.00000000
vn 0.00000000 0.00000000 1.00000000
vn 0.00000000 0.00000000 1.00000000
vn 0.00000000 0.00000000 1.00000000
usemtl stone
f 12/12/12 13/13/13 14/14/14
v 0.75000000 0.00000000 0.31250000
v 0.75000000 0.00000000 0.68750000
v 0.25000000 0.00000000 0.68750000
v 0.25000000 0.00000000 0.31250000
vt 0.75000000 0.31250000
vt 0.75000000 0.68750000
vt 0.25000000 0.68750000
vt 0.25000000 0.31250000
vn 0.00000000 -1.00000000 0.00000000
vn 0.00000000 -1.00000000 0.00000000
vn 0.00000000 -1.00000000 0.00000000
vn 0.00000000 -1.00000000 0.00000000
usemtl stone
f 15/15/15 16/16/16 17/17/17 18/18/18
v 0.90789474 1.00000000 0.68750000
v 0.75000000 0.00000000 0.68750000
v 0.75000000 0.00000000 0.31250000
v 0.90789474 1.00000000 0.31250000
vt 0.68750000 0.00000000
vt 0.68750000 1.00000000
vt 0.31250000 1.00000000
vt 0.31250000 0.00000000
vn 0.98776297 -0.15596257 0.00000000
vn 0.98776297 -0.15596257 0.00000000
vn 0.98776297 -0.15596257 0.00000000
vn 0.98776297 -0.15596257 0.00000000
usemtl stone
f 19/19/19 20/20/20 21/21/21 22/22/22
v 0.25000000 0.00000000 0.31250000
v 0.25000000 0.00000000 0.68750000
v 0.11363636 1.00000000 0.68750000
v 0.11363636 1.00000000 0.31250000
vt 0.31250000 1.00000000
vt 0.68750000 1.00000000
vt 0.68750000 0.00000000
vt 0.31250000 0.00000000
vn -0.99083017 -0.13511320 0.00000000
vn -0.99083017 -0.13511320 0.00000000
vn -0.99083017 -0.13511320 0.00000000
vn -0.99083017 -0.13511320 0.00000000
usemtl stone
f 23/23/23 24/24/24 25/25/25 26/26/26
