# Authored Vestige native monolith; units are blocks.
mtllib standing_stones.mtl
o monolith
v 0.81250000 0.00000000 0.31250000
v 0.12500000 0.00000000 0.31250000
v 0.17763158 1.00000000 0.31250000
v 0.28618421 1.00000000 0.31250000
vt 0.81250000 1.00000000
vt 0.12500000 1.00000000
vt 0.17763158 0.00000000
vt 0.28618421 0.00000000
vn 0.00000000 0.00000000 -1.00000000
vn 0.00000000 0.00000000 -1.00000000
vn 0.00000000 0.00000000 -1.00000000
vn 0.00000000 0.00000000 -1.00000000
usemtl stone
f 1/1/1 2/2/2 3/3/3 4/4/4
v 0.75000000 0.87500000 0.31250000
v 0.81250000 0.00000000 0.31250000
v 0.28618421 1.00000000 0.31250000
v 0.52500000 1.00000000 0.31250000
vt 0.75000000 0.12500000
vt 0.81250000 1.00000000
vt 0.28618421 0.00000000
vt 0.52500000 0.00000000
vn 0.00000000 0.00000000 -1.00000000
vn 0.00000000 0.00000000 -1.00000000
vn 0.00000000 0.00000000 -1.00000000
vn 0.00000000 0.00000000 -1.00000000
usemtl stone
f 5/5/5 6/6/6 7/7/7 8/8/8
v 0.71875000 1.00000000 0.31250000
v 0.75000000 0.87500000 0.31250000
v 0.52500000 1.00000000 0.31250000
vt 0.71875000 0.00000000
vt 0.75000000 0.12500000
vt 0.52500000 0.00000000
vn 0.00000000 0.00000000 -1.00000000
vn 0.00000000 0.00000000 -1.00000000
vn 0.00000000 0.00000000 -1.00000000
usemtl stone
f 9/9/9 10/10/10 11/11/11
v 0.17763158 1.00000000 0.75000000
v 0.12500000 0.00000000 0.75000000
v 0.81250000 0.00000000 0.75000000
v 0.28618421 1.00000000 0.75000000
vt 0.17763158 0.00000000
vt 0.12500000 1.00000000
vt 0.81250000 1.00000000
vt 0.28618421 0.00000000
vn 0.00000000 0.00000000 1.00000000
vn 0.00000000 0.00000000 1.00000000
vn 0.00000000 0.00000000 1.00000000
vn 0.00000000 0.00000000 1.00000000
usemtl stone
f 12/12/12 13/13/13 14/14/14 15/15/15
v 0.28618421 1.00000000 0.75000000
v 0.81250000 0.00000000 0.75000000
v 0.75000000 0.87500000 0.75000000
v 0.52500000 1.00000000 0.75000000
vt 0.28618421 0.00000000
vt 0.81250000 1.00000000
vt 0.75000000 0.12500000
vt 0.52500000 0.00000000
vn 0.00000000 0.00000000 1.00000000
vn 0.00000000 0.00000000 1.00000000
vn 0.00000000 0.00000000 1.00000000
vn 0.00000000 0.00000000 1.00000000
usemtl stone
f 16/16/16 17/17/17 18/18/18 19/19/19
v 0.52500000 1.00000000 0.75000000
v 0.75000000 0.87500000 0.75000000
v 0.71875000 1.00000000 0.75000000
vt 0.52500000 0.00000000
vt 0.75000000 0.12500000
vt 0.71875000 0.00000000
vn 0.00000000 0.00000000 1.00000000
vn 0.00000000 0.00000000 1.00000000
vn 0.00000000 0.00000000 1.00000000
usemtl stone
f 20/20/20 21/21/21 22/22/22
v 0.81250000 0.00000000 0.31250000
v 0.81250000 0.00000000 0.75000000
v 0.12500000 0.00000000 0.75000000
v 0.12500000 0.00000000 0.31250000
vt 0.81250000 0.31250000
vt 0.81250000 0.75000000
vt 0.12500000 0.75000000
vt 0.12500000 0.31250000
vn 0.00000000 -1.00000000 0.00000000
vn 0.00000000 -1.00000000 0.00000000
vn 0.00000000 -1.00000000 0.00000000
vn 0.00000000 -1.00000000 0.00000000
usemtl stone
f 23/23/23 24/24/24 25/25/25 26/26/26
v 0.75000000 0.87500000 0.31250000
v 0.75000000 0.87500000 0.75000000
v 0.81250000 0.00000000 0.75000000
v 0.81250000 0.00000000 0.31250000
vt 0.31250000 0.12500000
vt 0.75000000 0.12500000
vt 0.75000000 1.00000000
vt 0.31250000 1.00000000
vn 0.99745870 0.07124705 0.00000000
vn 0.99745870 0.07124705 0.00000000
vn 0.99745870 0.07124705 0.00000000
vn 0.99745870 0.07124705 0.00000000
usemtl stone
f 27/27/27 28/28/28 29/29/29 30/30/30
v 0.71875000 1.00000000 0.75000000
v 0.75000000 0.87500000 0.75000000
v 0.75000000 0.87500000 0.31250000
v 0.71875000 1.00000000 0.31250000
vt 0.75000000 0.00000000
vt 0.75000000 0.12500000
vt 0.31250000 0.12500000
vt 0.31250000 0.00000000
vn 0.97014250 0.24253563 0.00000000
vn 0.97014250 0.24253563 0.00000000
vn 0.97014250 0.24253563 0.00000000
vn 0.97014250 0.24253563 0.00000000
usemtl stone
f 31/31/31 32/32/32 33/33/33 34/34/34
v 0.12500000 0.00000000 0.31250000
v 0.12500000 0.00000000 0.75000000
v 0.17763158 1.00000000 0.75000000
v 0.17763158 1.00000000 0.31250000
vt 0.31250000 1.00000000
vt 0.75000000 1.00000000
vt 0.75000000 0.00000000
vt 0.31250000 0.00000000
vn -0.99861783 0.05255883 0.00000000
vn -0.99861783 0.05255883 0.00000000
vn -0.99861783 0.05255883 0.00000000
vn -0.99861783 0.05255883 0.00000000
usemtl stone
f 35/35/35 36/36/36 37/37/37 38/38/38
v 0.17763158 1.00000000 0.31250000
v 0.18750000 1.18750000 0.31250000
v 0.28618421 1.00000000 0.31250000
vt 0.17763158 1.00000000
vt 0.18750000 0.81250000
vt 0.28618421 1.00000000
vn 0.00000000 0.00000000 -1.00000000
vn 0.00000000 0.00000000 -1.00000000
vn 0.00000000 0.00000000 -1.00000000
usemtl stone
f 39/39/39 40/40/40 41/41/41
v 0.28618421 1.00000000 0.31250000
v 0.18750000 1.18750000 0.31250000
v 0.52500000 1.00000000 0.31250000
vt 0.28618421 1.00000000
vt 0.18750000 0.81250000
vt 0.52500000 1.00000000
vn 0.00000000 0.00000000 -1.00000000
vn 0.00000000 0.00000000 -1.00000000
vn 0.00000000 0.00000000 -1.00000000
usemtl stone
f 42/42/42 43/43/43 44/44/44
v 0.50000000 1.87500000 0.31250000
v 0.71875000 1.00000000 0.31250000
v 0.52500000 1.00000000 0.31250000
v 0.18750000 1.18750000 0.31250000
vt 0.50000000 0.12500000
vt 0.71875000 1.00000000
vt 0.52500000 1.00000000
vt 0.18750000 0.81250000
vn 0.00000000 0.00000000 -1.00000000
vn 0.00000000 0.00000000 -1.00000000
vn 0.00000000 0.00000000 -1.00000000
vn 0.00000000 0.00000000 -1.00000000
usemtl stone
f 45/45/45 46/46/46 47/47/47 48/48/48
v 0.18750000 1.18750000 0.31250000
v 0.37500000 1.75000000 0.31250000
v 0.50000000 1.87500000 0.31250000
vt 0.18750000 0.81250000
vt 0.37500000 0.25000000
vt 0.50000000 0.12500000
vn 0.00000000 0.00000000 -1.00000000
vn 0.00000000 0.00000000 -1.00000000
vn 0.00000000 0.00000000 -1.00000000
usemtl stone
f 49/49/49 50/50/50 51/51/51
v 0.18750000 1.18750000 0.75000000
v 0.17763158 1.00000000 0.75000000
v 0.28618421 1.00000000 0.75000000
vt 0.18750000 0.81250000
vt 0.17763158 1.00000000
vt 0.28618421 1.00000000
vn 0.00000000 0.00000000 1.00000000
vn 0.00000000 0.00000000 1.00000000
vn 0.00000000 0.00000000 1.00000000
usemtl stone
f 52/52/52 53/53/53 54/54/54
v 0.18750000 1.18750000 0.75000000
v 0.28618421 1.00000000 0.75000000
v 0.52500000 1.00000000 0.75000000
vt 0.18750000 0.81250000
vt 0.28618421 1.00000000
vt 0.52500000 1.00000000
vn 0.00000000 0.00000000 1.00000000
vn 0.00000000 0.00000000 1.00000000
vn 0.00000000 0.00000000 1.00000000
usemtl stone
f 55/55/55 56/56/56 57/57/57
v 0.18750000 1.18750000 0.75000000
v 0.52500000 1.00000000 0.75000000
v 0.71875000 1.00000000 0.75000000
v 0.50000000 1.87500000 0.75000000
vt 0.18750000 0.81250000
vt 0.52500000 1.00000000
vt 0.71875000 1.00000000
vt 0.50000000 0.12500000
vn 0.00000000 0.00000000 1.00000000
vn 0.00000000 0.00000000 1.00000000
vn 0.00000000 0.00000000 1.00000000
vn 0.00000000 0.00000000 1.00000000
usemtl stone
f 58/58/58 59/59/59 60/60/60 61/61/61
v 0.50000000 1.87500000 0.75000000
v 0.37500000 1.75000000 0.75000000
v 0.18750000 1.18750000 0.75000000
vt 0.50000000 0.12500000
vt 0.37500000 0.25000000
vt 0.18750000 0.81250000
vn 0.00000000 0.00000000 1.00000000
vn 0.00000000 0.00000000 1.00000000
vn 0.00000000 0.00000000 1.00000000
usemtl stone
f 62/62/62 63/63/63 64/64/64
v 0.50000000 1.87500000 0.31250000
v 0.50000000 1.87500000 0.75000000
v 0.71875000 1.00000000 0.75000000
v 0.71875000 1.00000000 0.31250000
vt 0.31250000 0.12500000
vt 0.75000000 0.12500000
vt 0.75000000 1.00000000
vt 0.31250000 1.00000000
vn 0.97014250 0.24253563 0.00000000
vn 0.97014250 0.24253563 0.00000000
vn 0.97014250 0.24253563 0.00000000
vn 0.97014250 0.24253563 0.00000000
usemtl stone
f 65/65/65 66/66/66 67/67/67 68/68/68
v 0.37500000 1.75000000 0.31250000
v 0.37500000 1.75000000 0.75000000
v 0.50000000 1.87500000 0.75000000
v 0.50000000 1.87500000 0.31250000
vt 0.31250000 0.25000000
vt 0.75000000 0.25000000
vt 0.75000000 0.12500000
vt 0.31250000 0.12500000
vn -0.70710678 0.70710678 0.00000000
vn -0.70710678 0.70710678 0.00000000
vn -0.70710678 0.70710678 0.00000000
vn -0.70710678 0.70710678 0.00000000
usemtl stone
f 69/69/69 70/70/70 71/71/71 72/72/72
v 0.18750000 1.18750000 0.31250000
v 0.18750000 1.18750000 0.75000000
v 0.37500000 1.75000000 0.75000000
v 0.37500000 1.75000000 0.31250000
vt 0.31250000 0.81250000
vt 0.75000000 0.81250000
vt 0.75000000 0.25000000
vt 0.31250000 0.25000000
vn -0.94868330 0.31622777 0.00000000
vn -0.94868330 0.31622777 0.00000000
vn -0.94868330 0.31622777 0.00000000
vn -0.94868330 0.31622777 0.00000000
usemtl stone
f 73/73/73 74/74/74 75/75/75 76/76/76
v 0.17763158 1.00000000 0.75000000
v 0.18750000 1.18750000 0.75000000
v 0.18750000 1.18750000 0.31250000
v 0.17763158 1.00000000 0.31250000
vt 0.75000000 1.00000000
vt 0.75000000 0.81250000
vt 0.31250000 0.81250000
vt 0.31250000 1.00000000
vn -0.99861783 0.05255883 0.00000000
vn -0.99861783 0.05255883 0.00000000
vn -0.99861783 0.05255883 0.00000000
vn -0.99861783 0.05255883 0.00000000
usemtl stone
f 77/77/77 78/78/78 79/79/79 80/80/80
