# Authored Vestige native monolith; units are blocks.
mtllib standing_stones.mtl
o monolith
v 0.87500000 0.00000000 0.25000000
v 0.12500000 0.00000000 0.25000000
v 0.16346154 1.00000000 0.25000000
v 0.45192308 1.00000000 0.25000000
vt 0.87500000 1.00000000
vt 0.12500000 1.00000000
vt 0.16346154 0.00000000
vt 0.45192308 0.00000000
vn 0.00000000 0.00000000 -1.00000000
vn 0.00000000 0.00000000 -1.00000000
vn 0.00000000 0.00000000 -1.00000000
vn 0.00000000 0.00000000 -1.00000000
usemtl stone
f 1/1/1 2/2/2 3/3/3 4/4/4
v 0.83653846 1.00000000 0.25000000
v 0.87500000 0.00000000 0.25000000
v 0.70833333 1.00000000 0.25000000
vt 0.83653846 0.00000000
vt 0.87500000 1.00000000
vt 0.70833333 0.00000000
vn 0.00000000 0.00000000 -1.00000000
vn 0.00000000 0.00000000 -1.00000000
vn 0.00000000 0.00000000 -1.00000000
usemtl stone
f 5/5/5 6/6/6 7/7/7
v 0.70833333 1.00000000 0.25000000
v 0.87500000 0.00000000 0.25000000
v 0.54166667 1.00000000 0.25000000
vt 0.70833333 0.00000000
vt 0.87500000 1.00000000
vt 0.54166667 0.00000000
vn 0.00000000 0.00000000 -1.00000000
vn 0.00000000 0.00000000 -1.00000000
vn 0.00000000 0.00000000 -1.00000000
usemtl stone
f 8/8/8 9/9/9 10/10/10
v 0.54166667 1.00000000 0.25000000
v 0.87500000 0.00000000 0.25000000
v 0.45192308 1.00000000 0.25000000
vt 0.54166667 0.00000000
vt 0.87500000 1.00000000
vt 0.45192308 0.00000000
vn 0.00000000 0.00000000 -1.00000000
vn 0.00000000 0.00000000 -1.00000000
vn 0.00000000 0.00000000 -1.00000000
usemtl stone
f 11/11/11 12/12/12 13/13/13
v 0.16346154 1.00000000 0.81250000
v 0.12500000 0.00000000 0.81250000
v 0.87500000 0.00000000 0.81250000
v 0.45192308 1.00000000 0.81250000
vt 0.16346154 0.00000000
vt 0.12500000 1.00000000
vt 0.87500000 1.00000000
vt 0.45192308 0.00000000
vn 0.00000000 0.00000000 1.00000000
vn 0.00000000 0.00000000 1.00000000
vn 0.00000000 0.00000000 1.00000000
vn 0.00000000 0.00000000 1.00000000
usemtl stone
f 14/14/14 15/15/15 16/16/16 17/17/17
v 0.87500000 0.00000000 0.81250000
v 0.83653846 1.00000000 0.81250000
v 0.70833333 1.00000000 0.81250000
vt 0.87500000 1.00000000
vt 0.83653846 0.00000000
vt 0.70833333 0.00000000
vn 0.00000000 0.00000000 1.00000000
vn 0.00000000 0.00000000 1.00000000
vn 0.00000000 0.00000000 1.00000000
usemtl stone
f 18/18/18 19/19/19 20/20/20
v 0.87500000 0.00000000 0.81250000
v 0.70833333 1.00000000 0.81250000
v 0.54166667 1.00000000 0.81250000
vt 0.87500000 1.00000000
vt 0.70833333 0.00000000
vt 0.54166667 0.00000000
vn 0.00000000 0.00000000 1.00000000
vn 0.00000000 0.00000000 1.00000000
vn 0.00000000 0.00000000 1.00000000
usemtl stone
f 21/21/21 22/22/22 23/23/23
v 0.87500000 0.00000000 0.81250000
v 0.54166667 1.00000000 0.81250000
v 0.45192308 1.00000000 0.81250000
vt 0.87500000 1.00000000
vt 0.54166667 0.00000000
vt 0.45192308 0.00000000
vn 0.00000000 0.00000000 1.00000000
vn 0.00000000 0.00000000 1.00000000
vn 0.00000000 0.00000000 1.00000000
usemtl stone
f 24/24/24 25/25/25 26/26/26
v 0.87500000 0.00000000 0.25000000
v 0.87500000 0.00000000 0.81250000
v 0.12500000 0.00000000 0.81250000
v 0.12500000 0.00000000 0.25000000
vt 0.87500000 0.25000000
vt 0.87500000 0.81250000
vt 0.12500000 0.81250000
vt 0.12500000 0.25000000
vn 0.00000000 -1.00000000 0.00000000
vn 0.00000000 -1.00000000 0.00000000
vn 0.00000000 -1.00000000 0.00000000
vn 0.00000000 -1.00000000 0.00000000
usemtl stone
f 27/27/27 28/28/28 29/29/29 30/30/30
v 0.83653846 1.00000000 0.81250000
v 0.87500000 0.00000000 0.81250000
v 0.87500000 0.00000000 0.25000000
v 0.83653846 1.00000000 0.25000000
vt 0.81250000 0.00000000
vt 0.81250000 1.00000000
vt 0.25000000 1.00000000
vt 0.25000000 0.00000000
vn 0.99926117 0.03843312 0.00000000
vn 0.99926117 0.03843312 0.00000000
vn 0.99926117 0.03843312 0.00000000
vn 0.99926117 0.03843312 0.00000000
usemtl stone
f 31/31/31 32/32/32 33/33/33 34/34/34
v 0.12500000 0.00000000 0.25000000
v 0.12500000 0.00000000 0.81250000
v 0.16346154 1.00000000 0.81250000
v 0.16346154 1.00000000 0.25000000
vt 0.25000000 1.00000000
vt 0.81250000 1.00000000
vt 0.81250000 0.00000000
vt 0.25000000 0.00000000
vn -0.99926117 0.03843312 0.00000000
vn -0.99926117 0.03843312 0.00000000
vn -0.99926117 0.03843312 0.00000000
vn -0.99926117 0.03843312 0.00000000
usemtl stone
f 35/35/35 36/36/36 37/37/37 38/38/38
