# Authored Vestige native monolith; units are blocks.
mtllib standing_stones.mtl
o monolith
v 0.87500000 0.00000000 0.25000000
v 0.12500000 0.00000000 0.25000000
v 0.16346154 1.00000000 0.25000000
v 0.45192308 1.00000000 0.25000000
vt 0.87500000 1.00000000
vt 0.12500000 1.00000000
vt 0.16346154 0.00000000
vt 0.45192308 0.00000000
vn 0.00000000 0.00000000 -1.00000000
vn 0.00000000 0.00000000 -1.00000000
vn 0.00000000 0.00000000 -1.00000000
vn 0.00000000 0.00000000 -1.00000000
usemtl stone
f 1/1/1 2/2/2 3/3/3 4/4/4
v 0.83653846 1.00000000 0.25000000
v 0.87500000 0.00000000 0.25000000
v 0.70833333 1.00000000 0.25000000
vt 0.83653846 0.00000000
vt 0.87500000 1.00000000
vt 0.70833333 0.00000000
vn 0.00000000 0.00000000 -1.00000000
vn 0.00000000 0.00000000 -1.00000000
vn 0.00000000 0.00000000 -1.00000000
usemtl stone
f 5/5/5 6/6/6 7/7/7
v 0.70833333 1.00000000 0.25000000
v 0.87500000 0.00000000 0.25000000
v 0.54166667 1.00000000 0.25000000
vt 0.70833333 0.00000000
vt 0.87500000 1.00000000
vt 0.54166667 0.00000000
vn 0.00000000 0.00000000 -1.00000000
vn 0.00000000 0.00000000 -1.00000000
vn 0.00000000 0.00000000 -1.00000000
usemtl stone
f 8/8/8 9/9/9 10/10/10
v 0.54166667 1.00000000 0.25000000
v 0.87500000 0.00000000 0.25000000
v 0.45192308 1.00000000 0.25000000
vt 0.54166667 0.00000000
vt 0.87500000 1.00000000
vt 0.45192308 0.00000000
vn 0.00000000 0.00000000 -1.00000000
vn 0.00000000 0.00000000 -1.00000000
vn 0.00000000 0.00000000 -1.00000000
usemtl stone
f 11/11/11 12/12/12 13/13/13
v 0.16346154 1.00000000 0.81250000
v 0.12500000 0.00000000 0.81250000
v 0.87500000 0.00000000 0.81250000
v 0.45192308 1.00000000 0.81250000
vt 0.16346154 0.00000000
vt 0.12500000 1.00000000
vt 0.87500000 1.00000000
vt 0.45192308 0.00000000
vn 0.00000000 0.00000000 1.00000000
vn 0.00000000 0.00000000 1.00000000
vn 0.00000000 0.00000000 1.00000000
vn 0.00000000 0.00000000 1.00000000
usemtl stone
f 14/14/14 15/15/15 16/16/16 17/17/17
v 0.87500000 0.00000000 0.81250000
v 0.83653846 1.00000000 0.81250000
v 0.70833333 1.00000000 0.81250000
vt 0.87500000 1.00000000
vt 0.83653846 0.00000000
vt 0.70833333 0.00000000
vn 0.00000000 0.00000000 1.00000000
vn 0.00000000 0.00000000 1.00000000
vn 0.00000000 0.00000000 1.00000000
usemtl stone
f 18/18/18 19/19/19 20/20/20
v 0.87500000 0.00000000 0.81250000
v 0.70833333 1.00000000 0.81250000
v 0.54166667 1.00000000 0.81250000
vt 0.87500000 1.00000000
vt 0.70833333 0.00000000
vt 0.54166667 0.00000000
vn 0.00000000 0.00000000 1.00000000
vn 0.00000000 0.00000000 1.00000000
vn 0.00000000 0.00000000 1.00000000
usemtl stone
f 21/21/21 22/22/22 23/23/23
v 0.87500000 0.00000000 0.81250000
v 0.54166667 1.00000000 0.81250000
v 0.45192308 1.00000000 0.81250000
vt 0.87500000 1.00000000
vt 0.54166667 0.00000000
vt 0.45192308 0.00000000
vn 0.00000000 0.00000000 1.00000000
vn 0.00000000 0.00000000 1.00000000
vn 0.00000000 0.00000000 1.00000000
usemtl stone
f 24/24/24 25/25/25 26/26/26
v 0.87500000 0.00000000 0.25000000
v 0.87500000 0.00000000 0.81250000
v 0.12500000 0.00000000 0.81250000
v 0.12500000 0.00000000 0.25000000
vt 0.87500000 0.25000000
vt 0.87500000 0.81250000
vt 0.12500000 0.81250000
vt 0.12500000 0.25000000
vn 0.00000000 -1.00000000 0.00000000
vn 0.00000000 -1.00000000 0.00000000
vn 0.00000000 -1.00000000 0.00000000
vn 0.00000000 -1.00000000 0.00000000
usemtl stone
f 27/27/27 28/28/28 29/29/29 30/30/30
v 0.83653846 1.00000000 0.81250000
v 0.87500000 0.00000000 0.81250000
v 0.87500000 0.00000000 0.25000000
v 0.83653846 1.00000000 0.25000000
vt 0.81250000 0.00000000
vt 0.81250000 1.00000000
vt 0.25000000 1.00000000
vt 0.25000000 0.00000000
vn 0.99926117 0.03843312 0.00000000
vn 0.99926117 0.03843312 0.00000000
vn 0.99926117 0.03843312 0.00000000
vn 0.99926117 0.03843312 0.00000000
usemtl stone
f 31/31/31 32/32/32 33/33/33 34/34/34
v 0.12500000 0.00000000 0.25000000
v 0.12500000 0.00000000 0.81250000
v 0.16346154 1.00000000 0.81250000
v 0.16346154 1.00000000 0.25000000
vt 0.25000000 1.00000000
vt 0.81250000 1.00000000
vt 0.81250000 0.00000000
vt 0.25000000 0.00000000
vn -0.99926117 0.03843312 0.00000000
vn -0.99926117 0.03843312 0.00000000
vn -0.99926117 0.03843312 0.00000000
vn -0.99926117 0.03843312 0.00000000
usemtl stone
f 35/35/35 36/36/36 37/37/37 38/38/38
v 0.16346154 1.00000000 0.25000000
v 0.18750000 1.62500000 0.25000000
v 0.45192308 1.00000000 0.25000000
vt 0.16346154 1.00000000
vt 0.18750000 0.37500000
vt 0.45192308 1.00000000
vn 0.00000000 0.00000000 -1.00000000
vn 0.00000000 0.00000000 -1.00000000
vn 0.00000000 0.00000000 -1.00000000
usemtl stone
f 39/39/39 40/40/40 41/41/41
v 0.62500000 1.50000000 0.25000000
v 0.81250000 1.62500000 0.25000000
v 0.83653846 1.00000000 0.25000000
v 0.70833333 1.00000000 0.25000000
vt 0.62500000 0.50000000
vt 0.81250000 0.37500000
vt 0.83653846 1.00000000
vt 0.70833333 1.00000000
vn 0.00000000 0.00000000 -1.00000000
vn 0.00000000 0.00000000 -1.00000000
vn 0.00000000 0.00000000 -1.00000000
vn 0.00000000 0.00000000 -1.00000000
usemtl stone
f 42/42/42 43/43/43 44/44/44 45/45/45
v 0.43750000 1.31250000 0.25000000
v 0.62500000 1.50000000 0.25000000
v 0.70833333 1.00000000 0.25000000
v 0.54166667 1.00000000 0.25000000
vt 0.43750000 0.68750000
vt 0.62500000 0.50000000
vt 0.70833333 1.00000000
vt 0.54166667 1.00000000
vn 0.00000000 0.00000000 -1.00000000
vn 0.00000000 0.00000000 -1.00000000
vn 0.00000000 0.00000000 -1.00000000
vn 0.00000000 0.00000000 -1.00000000
usemtl stone
f 46/46/46 47/47/47 48/48/48 49/49/49
v 0.18750000 1.62500000 0.25000000
v 0.43750000 1.31250000 0.25000000
v 0.54166667 1.00000000 0.25000000
v 0.45192308 1.00000000 0.25000000
vt 0.18750000 0.37500000
vt 0.43750000 0.68750000
vt 0.54166667 1.00000000
vt 0.45192308 1.00000000
vn 0.00000000 0.00000000 -1.00000000
vn 0.00000000 0.00000000 -1.00000000
vn 0.00000000 0.00000000 -1.00000000
vn 0.00000000 0.00000000 -1.00000000
usemtl stone
f 50/50/50 51/51/51 52/52/52 53/53/53
v 0.18750000 1.62500000 0.81250000
v 0.16346154 1.00000000 0.81250000
v 0.45192308 1.00000000 0.81250000
vt 0.18750000 0.37500000
vt 0.16346154 1.00000000
vt 0.45192308 1.00000000
vn 0.00000000 0.00000000 1.00000000
vn 0.00000000 0.00000000 1.00000000
vn 0.00000000 0.00000000 1.00000000
usemtl stone
f 54/54/54 55/55/55 56/56/56
v 0.83653846 1.00000000 0.81250000
v 0.81250000 1.62500000 0.81250000
v 0.62500000 1.50000000 0.81250000
v 0.70833333 1.00000000 0.81250000
vt 0.83653846 1.00000000
vt 0.81250000 0.37500000
vt 0.62500000 0.50000000
vt 0.70833333 1.00000000
vn 0.00000000 0.00000000 1.00000000
vn 0.00000000 0.00000000 1.00000000
vn 0.00000000 0.00000000 1.00000000
vn 0.00000000 0.00000000 1.00000000
usemtl stone
f 57/57/57 58/58/58 59/59/59 60/60/60
v 0.70833333 1.00000000 0.81250000
v 0.62500000 1.50000000 0.81250000
v 0.43750000 1.31250000 0.81250000
v 0.54166667 1.00000000 0.81250000
vt 0.70833333 1.00000000
vt 0.62500000 0.50000000
vt 0.43750000 0.68750000
vt 0.54166667 1.00000000
vn 0.00000000 0.00000000 1.00000000
vn 0.00000000 0.00000000 1.00000000
vn 0.00000000 0.00000000 1.00000000
vn 0.00000000 0.00000000 1.00000000
usemtl stone
f 61/61/61 62/62/62 63/63/63 64/64/64
v 0.54166667 1.00000000 0.81250000
v 0.43750000 1.31250000 0.81250000
v 0.18750000 1.62500000 0.81250000
v 0.45192308 1.00000000 0.81250000
vt 0.54166667 1.00000000
vt 0.43750000 0.68750000
vt 0.18750000 0.37500000
vt 0.45192308 1.00000000
vn 0.00000000 0.00000000 1.00000000
vn 0.00000000 0.00000000 1.00000000
vn 0.00000000 0.00000000 1.00000000
vn 0.00000000 0.00000000 1.00000000
usemtl stone
f 65/65/65 66/66/66 67/67/67 68/68/68
v 0.81250000 1.62500000 0.25000000
v 0.81250000 1.62500000 0.81250000
v 0.83653846 1.00000000 0.81250000
v 0.83653846 1.00000000 0.25000000
vt 0.25000000 0.37500000
vt 0.81250000 0.37500000
vt 0.81250000 1.00000000
vt 0.25000000 1.00000000
vn 0.99926117 0.03843312 0.00000000
vn 0.99926117 0.03843312 0.00000000
vn 0.99926117 0.03843312 0.00000000
vn 0.99926117 0.03843312 0.00000000
usemtl stone
f 69/69/69 70/70/70 71/71/71 72/72/72
v 0.62500000 1.50000000 0.25000000
v 0.62500000 1.50000000 0.81250000
v 0.81250000 1.62500000 0.81250000
v 0.81250000 1.62500000 0.25000000
vt 0.62500000 0.25000000
vt 0.62500000 0.81250000
vt 0.81250000 0.81250000
vt 0.81250000 0.25000000
vn -0.55470020 0.83205029 0.00000000
vn -0.55470020 0.83205029 0.00000000
vn -0.55470020 0.83205029 0.00000000
vn -0.55470020 0.83205029 0.00000000
usemtl stone
f 73/73/73 74/74/74 75/75/75 76/76/76
v 0.43750000 1.31250000 0.25000000
v 0.43750000 1.31250000 0.81250000
v 0.62500000 1.50000000 0.81250000
v 0.62500000 1.50000000 0.25000000
vt 0.25000000 0.68750000
vt 0.81250000 0.68750000
vt 0.81250000 0.50000000
vt 0.25000000 0.50000000
vn -0.70710678 0.70710678 0.00000000
vn -0.70710678 0.70710678 0.00000000
vn -0.70710678 0.70710678 0.00000000
vn -0.70710678 0.70710678 0.00000000
usemtl stone
f 77/77/77 78/78/78 79/79/79 80/80/80
v 0.18750000 1.62500000 0.25000000
v 0.18750000 1.62500000 0.81250000
v 0.43750000 1.31250000 0.81250000
v 0.43750000 1.31250000 0.25000000
vt 0.25000000 0.37500000
vt 0.81250000 0.37500000
vt 0.81250000 0.68750000
vt 0.25000000 0.68750000
vn 0.78086881 0.62469505 0.00000000
vn 0.78086881 0.62469505 0.00000000
vn 0.78086881 0.62469505 0.00000000
vn 0.78086881 0.62469505 0.00000000
usemtl stone
f 81/81/81 82/82/82 83/83/83 84/84/84
v 0.16346154 1.00000000 0.81250000
v 0.18750000 1.62500000 0.81250000
v 0.18750000 1.62500000 0.25000000
v 0.16346154 1.00000000 0.25000000
vt 0.81250000 1.00000000
vt 0.81250000 0.37500000
vt 0.25000000 0.37500000
vt 0.25000000 1.00000000
vn -0.99926117 0.03843312 0.00000000
vn -0.99926117 0.03843312 0.00000000
vn -0.99926117 0.03843312 0.00000000
vn -0.99926117 0.03843312 0.00000000
usemtl stone
f 85/85/85 86/86/86 87/87/87 88/88/88
