# Authored Vestige native monolith; units are blocks.
mtllib standing_stones.mtl
o monolith
v 0.75000000 0.00000000 0.31250000
v 0.12500000 0.00000000 0.31250000
v 0.18750000 0.50000000 0.31250000
vt 0.75000000 1.00000000
vt 0.12500000 1.00000000
vt 0.18750000 0.50000000
vn 0.00000000 0.00000000 -1.00000000
vn 0.00000000 0.00000000 -1.00000000
vn 0.00000000 0.00000000 -1.00000000
usemtl stone
f 1/1/1 2/2/2 3/3/3
v 0.68750000 0.68750000 0.31250000
v 0.75000000 0.00000000 0.31250000
v 0.18750000 0.50000000 0.31250000
vt 0.68750000 0.31250000
vt 0.75000000 1.00000000
vt 0.18750000 0.50000000
vn 0.00000000 0.00000000 -1.00000000
vn 0.00000000 0.00000000 -1.00000000
vn 0.00000000 0.00000000 -1.00000000
usemtl stone
f 4/4/4 5/5/5 6/6/6
v 0.75694444 1.00000000 0.31250000
v 0.68750000 0.68750000 0.31250000
v 0.18750000 0.50000000 0.31250000
v 0.47321429 1.00000000 0.31250000
vt 0.75694444 0.00000000
vt 0.68750000 0.31250000
vt 0.18750000 0.50000000
vt 0.47321429 0.00000000
vn 0.00000000 0.00000000 -1.00000000
vn 0.00000000 0.00000000 -1.00000000
vn 0.00000000 0.00000000 -1.00000000
vn 0.00000000 0.00000000 -1.00000000
usemtl stone
f 7/7/7 8/8/8 9/9/9 10/10/10
v 0.47321429 1.00000000 0.31250000
v 0.18750000 0.50000000 0.31250000
v 0.38194444 1.00000000 0.31250000
vt 0.47321429 0.00000000
vt 0.18750000 0.50000000
vt 0.38194444 0.00000000
vn 0.00000000 0.00000000 -1.00000000
vn 0.00000000 0.00000000 -1.00000000
vn 0.00000000 0.00000000 -1.00000000
usemtl stone
f 11/11/11 12/12/12 13/13/13
v 0.18750000 0.50000000 0.31250000
v 0.37500000 1.00000000 0.31250000
v 0.38194444 1.00000000 0.31250000
vt 0.18750000 0.50000000
vt 0.37500000 0.00000000
vt 0.38194444 0.00000000
vn 0.00000000 0.00000000 -1.00000000
vn 0.00000000 0.00000000 -1.00000000
vn 0.00000000 0.00000000 -1.00000000
usemtl stone
f 14/14/14 15/15/15 16/16/16
v 0.18750000 0.50000000 0.62500000
v 0.12500000 0.00000000 0.62500000
v 0.75000000 0.00000000 0.62500000
vt 0.18750000 0.50000000
vt 0.12500000 1.00000000
vt 0.75000000 1.00000000
vn 0.00000000 0.00000000 1.00000000
vn 0.00000000 0.00000000 1.00000000
vn 0.00000000 0.00000000 1.00000000
usemtl stone
f 17/17/17 18/18/18 19/19/19
v 0.18750000 0.50000000 0.62500000
v 0.75000000 0.00000000 0.62500000
v 0.68750000 0.68750000 0.62500000
vt 0.18750000 0.50000000
vt 0.75000000 1.00000000
vt 0.68750000 0.31250000
vn 0.00000000 0.00000000 1.00000000
vn 0.00000000 0.00000000 1.00000000
vn 0.00000000 0.00000000 1.00000000
usemtl stone
f 20/20/20 21/21/21 22/22/22
v 0.18750000 0.50000000 0.62500000
v 0.68750000 0.68750000 0.62500000
v 0.75694444 1.00000000 0.62500000
v 0.47321429 1.00000000 0.62500000
vt 0.18750000 0.50000000
vt 0.68750000 0.31250000
vt 0.75694444 0.00000000
vt 0.47321429 0.00000000
vn 0.00000000 0.00000000 1.00000000
vn 0.00000000 0.00000000 1.00000000
vn 0.00000000 0.00000000 1.00000000
vn 0.00000000 0.00000000 1.00000000
usemtl stone
f 23/23/23 24/24/24 25/25/25 26/26/26
v 0.18750000 0.50000000 0.62500000
v 0.47321429 1.00000000 0.62500000
v 0.38194444 1.00000000 0.62500000
vt 0.18750000 0.50000000
vt 0.47321429 0.00000000
vt 0.38194444 0.00000000
vn 0.00000000 0.00000000 1.00000000
vn 0.00000000 0.00000000 1.00000000
vn 0.00000000 0.00000000 1.00000000
usemtl stone
f 27/27/27 28/28/28 29/29/29
v 0.37500000 1.00000000 0.62500000
v 0.18750000 0.50000000 0.62500000
v 0.38194444 1.00000000 0.62500000
vt 0.37500000 0.00000000
vt 0.18750000 0.50000000
vt 0.38194444 0.00000000
vn 0.00000000 0.00000000 1.00000000
vn 0.00000000 0.00000000 1.00000000
vn 0.00000000 0.00000000 1.00000000
usemtl stone
f 30/30/30 31/31/31 32/32/32
v 0.75000000 0.00000000 0.31250000
v 0.75000000 0.00000000 0.62500000
v 0.12500000 0.00000000 0.62500000
v 0.12500000 0.00000000 0.31250000
vt 0.75000000 0.31250000
vt 0.75000000 0.62500000
vt 0.12500000 0.62500000
vt 0.12500000 0.31250000
vn 0.00000000 -1.00000000 0.00000000
vn 0.00000000 -1.00000000 0.00000000
vn 0.00000000 -1.00000000 0.00000000
vn 0.00000000 -1.00000000 0.00000000
usemtl stone
f 33/33/33 34/34/34 35/35/35 36/36/36
v 0.68750000 0.68750000 0.31250000
v 0.68750000 0.68750000 0.62500000
v 0.75000000 0.00000000 0.62500000
v 0.75000000 0.00000000 0.31250000
vt 0.31250000 0.31250000
vt 0.62500000 0.31250000
vt 0.62500000 1.00000000
vt 0.31250000 1.00000000
vn 0.99589321 0.09053575 0.00000000
vn 0.99589321 0.09053575 0.00000000
vn 0.99589321 0.09053575 0.00000000
vn 0.99589321 0.09053575 0.00000000
usemtl stone
f 37/37/37 38/38/38 39/39/39 40/40/40
v 0.75694444 1.00000000 0.62500000
v 0.68750000 0.68750000 0.62500000
v 0.68750000 0.68750000 0.31250000
v 0.75694444 1.00000000 0.31250000
vt 0.62500000 0.00000000
vt 0.62500000 0.31250000
vt 0.31250000 0.31250000
vt 0.31250000 0.00000000
vn 0.97618706 -0.21693046 0.00000000
vn 0.97618706 -0.21693046 0.00000000
vn 0.97618706 -0.21693046 0.00000000
vn 0.97618706 -0.21693046 0.00000000
usemtl stone
f 41/41/41 42/42/42 43/43/43 44/44/44
v 0.18750000 0.50000000 0.31250000
v 0.18750000 0.50000000 0.62500000
v 0.37500000 1.00000000 0.62500000
v 0.37500000 1.00000000 0.31250000
vt 0.31250000 0.50000000
vt 0.62500000 0.50000000
vt 0.62500000 0.00000000
vt 0.31250000 0.00000000
vn -0.93632918 0.35112344 0.00000000
vn -0.93632918 0.35112344 0.00000000
vn -0.93632918 0.35112344 0.00000000
vn -0.93632918 0.35112344 0.00000000
usemtl stone
f 45/45/45 46/46/46 47/47/47 48/48/48
v 0.12500000 0.00000000 0.31250000
v 0.12500000 0.00000000 0.62500000
v 0.18750000 0.50000000 0.62500000
v 0.18750000 0.50000000 0.31250000
vt 0.31250000 1.00000000
vt 0.62500000 1.00000000
vt 0.62500000 0.50000000
vt 0.31250000 0.50000000
vn -0.99227788 0.12403473 0.00000000
vn -0.99227788 0.12403473 0.00000000
vn -0.99227788 0.12403473 0.00000000
vn -0.99227788 0.12403473 0.00000000
usemtl stone
f 49/49/49 50/50/50 51/51/51 52/52/52
v 0.93750000 1.81250000 0.31250000
v 0.75694444 1.00000000 0.31250000
v 0.47321429 1.00000000 0.31250000
vt 0.93750000 0.18750000
vt 0.75694444 1.00000000
vt 0.47321429 1.00000000
vn 0.00000000 0.00000000 -1.00000000
vn 0.00000000 0.00000000 -1.00000000
vn 0.00000000 0.00000000 -1.00000000
usemtl stone
f 53/53/53 54/54/54 55/55/55
v 0.62500000 1.62500000 0.31250000
v 0.93750000 1.81250000 0.31250000
v 0.47321429 1.00000000 0.31250000
v 0.38194444 1.00000000 0.31250000
vt 0.62500000 0.37500000
vt 0.93750000 0.18750000
vt 0.47321429 1.00000000
vt 0.38194444 1.00000000
vn 0.00000000 0.00000000 -1.00000000
vn 0.00000000 0.00000000 -1.00000000
vn 0.00000000 0.00000000 -1.00000000
vn 0.00000000 0.00000000 -1.00000000
usemtl stone
f 56/56/56 57/57/57 58/58/58 59/59/59
v 0.37500000 1.00000000 0.31250000
v 0.62500000 1.62500000 0.31250000
v 0.38194444 1.00000000 0.31250000
vt 0.37500000 1.00000000
vt 0.62500000 0.37500000
vt 0.38194444 1.00000000
vn 0.00000000 0.00000000 -1.00000000
vn 0.00000000 0.00000000 -1.00000000
vn 0.00000000 0.00000000 -1.00000000
usemtl stone
f 60/60/60 61/61/61 62/62/62
v 0.75694444 1.00000000 0.62500000
v 0.93750000 1.81250000 0.62500000
v 0.47321429 1.00000000 0.62500000
vt 0.75694444 1.00000000
vt 0.93750000 0.18750000
vt 0.47321429 1.00000000
vn 0.00000000 0.00000000 1.00000000
vn 0.00000000 0.00000000 1.00000000
vn 0.00000000 0.00000000 1.00000000
usemtl stone
f 63/63/63 64/64/64 65/65/65
v 0.47321429 1.00000000 0.62500000
v 0.93750000 1.81250000 0.62500000
v 0.62500000 1.62500000 0.62500000
v 0.38194444 1.00000000 0.62500000
vt 0.47321429 1.00000000
vt 0.93750000 0.18750000
vt 0.62500000 0.37500000
vt 0.38194444 1.00000000
vn 0.00000000 0.00000000 1.00000000
vn 0.00000000 0.00000000 1.00000000
vn 0.00000000 0.00000000 1.00000000
vn 0.00000000 0.00000000 1.00000000
usemtl stone
f 66/66/66 67/67/67 68/68/68 69/69/69
v 0.62500000 1.62500000 0.62500000
v 0.37500000 1.00000000 0.62500000
v 0.38194444 1.00000000 0.62500000
vt 0.62500000 0.37500000
vt 0.37500000 1.00000000
vt 0.38194444 1.00000000
vn 0.00000000 0.00000000 1.00000000
vn 0.00000000 0.00000000 1.00000000
vn 0.00000000 0.00000000 1.00000000
usemtl stone
f 70/70/70 71/71/71 72/72/72
v 0.93750000 1.81250000 0.31250000
v 0.93750000 1.81250000 0.62500000
v 0.75694444 1.00000000 0.62500000
v 0.75694444 1.00000000 0.31250000
vt 0.31250000 0.18750000
vt 0.62500000 0.18750000
vt 0.62500000 1.00000000
vt 0.31250000 1.00000000
vn 0.97618706 -0.21693046 0.00000000
vn 0.97618706 -0.21693046 0.00000000
vn 0.97618706 -0.21693046 0.00000000
vn 0.97618706 -0.21693046 0.00000000
usemtl stone
f 73/73/73 74/74/74 75/75/75 76/76/76
v 0.62500000 1.62500000 0.31250000
v 0.62500000 1.62500000 0.62500000
v 0.93750000 1.81250000 0.62500000
v 0.93750000 1.81250000 0.31250000
vt 0.62500000 0.31250000
vt 0.62500000 0.62500000
vt 0.93750000 0.62500000
vt 0.93750000 0.31250000
vn -0.51449576 0.85749293 0.00000000
vn -0.51449576 0.85749293 0.00000000
vn -0.51449576 0.85749293 0.00000000
vn -0.51449576 0.85749293 0.00000000
usemtl stone
f 77/77/77 78/78/78 79/79/79 80/80/80
v 0.37500000 1.00000000 0.31250000
v 0.37500000 1.00000000 0.62500000
v 0.62500000 1.62500000 0.62500000
v 0.62500000 1.62500000 0.31250000
vt 0.31250000 1.00000000
vt 0.62500000 1.00000000
vt 0.62500000 0.37500000
vt 0.31250000 0.37500000
vn -0.92847669 0.37139068 0.00000000
vn -0.92847669 0.37139068 0.00000000
vn -0.92847669 0.37139068 0.00000000
vn -0.92847669 0.37139068 0.00000000
usemtl stone
f 81/81/81 82/82/82 83/83/83 84/84/84
