# Authored Vestige native monolith; units are blocks.
mtllib standing_stones.mtl
o monolith
v 0.81250000 0.00000000 0.31250000
v 0.18750000 0.00000000 0.31250000
v 0.26750000 1.00000000 0.31250000
v 0.49250000 1.00000000 0.31250000
vt 0.81250000 1.00000000
vt 0.18750000 1.00000000
vt 0.26750000 0.00000000
vt 0.49250000 0.00000000
vn 0.00000000 0.00000000 -1.00000000
vn 0.00000000 0.00000000 -1.00000000
vn 0.00000000 0.00000000 -1.00000000
vn 0.00000000 0.00000000 -1.00000000
usemtl stone
f 1/1/1 2/2/2 3/3/3 4/4/4
v 0.73250000 1.00000000 0.31250000
v 0.81250000 0.00000000 0.31250000
v 0.49250000 1.00000000 0.31250000
vt 0.73250000 0.00000000
vt 0.81250000 1.00000000
vt 0.49250000 0.00000000
vn 0.00000000 0.00000000 -1.00000000
vn 0.00000000 0.00000000 -1.00000000
vn 0.00000000 0.00000000 -1.00000000
usemtl stone
f 5/5/5 6/6/6 7/7/7
v 0.26750000 1.00000000 0.68750000
v 0.18750000 0.00000000 0.68750000
v 0.81250000 0.00000000 0.68750000
v 0.49250000 1.00000000 0.68750000
vt 0.26750000 0.00000000
vt 0.18750000 1.00000000
vt 0.81250000 1.00000000
vt 0.49250000 0.00000000
vn 0.00000000 0.00000000 1.00000000
vn 0.00000000 0.00000000 1.00000000
vn 0.00000000 0.00000000 1.00000000
vn 0.00000000 0.00000000 1.00000000
usemtl stone
f 8/8/8 9/9/9 10/10/10 11/11/11
v 0.49250000 1.00000000 0.68750000
v 0.81250000 0.00000000 0.68750000
v 0.73250000 1.00000000 0.68750000
vt 0.49250000 0.00000000
vt 0.81250000 1.00000000
vt 0.73250000 0.00000000
vn 0.00000000 0.00000000 1.00000000
vn 0.00000000 0.00000000 1.00000000
vn 0.00000000 0.00000000 1.00000000
usemtl stone
f 12/12/12 13/13/13 14/14/14
v 0.81250000 0.00000000 0.31250000
v 0.81250000 0.00000000 0.68750000
v 0.18750000 0.00000000 0.68750000
v 0.18750000 0.00000000 0.31250000
vt 0.81250000 0.31250000
vt 0.81250000 0.68750000
vt 0.18750000 0.68750000
vt 0.18750000 0.31250000
vn 0.00000000 -1.00000000 0.00000000
vn 0.00000000 -1.00000000 0.00000000
vn 0.00000000 -1.00000000 0.00000000
vn 0.00000000 -1.00000000 0.00000000
usemtl stone
f 15/15/15 16/16/16 17/17/17 18/18/18
v 0.73250000 1.00000000 0.68750000
v 0.81250000 0.00000000 0.68750000
v 0.81250000 0.00000000 0.31250000
v 0.73250000 1.00000000 0.31250000
vt 0.68750000 0.00000000
vt 0.68750000 1.00000000
vt 0.31250000 1.00000000
vt 0.31250000 0.00000000
vn 0.99681528 0.07974522 0.00000000
vn 0.99681528 0.07974522 0.00000000
vn 0.99681528 0.07974522 0.00000000
vn 0.99681528 0.07974522 0.00000000
usemtl stone
f 19/19/19 20/20/20 21/21/21 22/22/22
v 0.18750000 0.00000000 0.31250000
v 0.18750000 0.00000000 0.68750000
v 0.26750000 1.00000000 0.68750000
v 0.26750000 1.00000000 0.31250000
vt 0.31250000 1.00000000
vt 0.68750000 1.00000000
vt 0.68750000 0.00000000
vt 0.31250000 0.00000000
vn -0.99681528 0.07974522 0.00000000
vn -0.99681528 0.07974522 0.00000000
vn -0.99681528 0.07974522 0.00000000
vn -0.99681528 0.07974522 0.00000000
usemtl stone
f 23/23/23 24/24/24 25/25/25 26/26/26
v 0.26750000 1.00000000 0.31250000
v 0.31250000 1.56250000 0.31250000
v 0.49250000 1.00000000 0.31250000
vt 0.26750000 1.00000000
vt 0.31250000 0.43750000
vt 0.49250000 1.00000000
vn 0.00000000 0.00000000 -1.00000000
vn 0.00000000 0.00000000 -1.00000000
vn 0.00000000 0.00000000 -1.00000000
usemtl stone
f 27/27/27 28/28/28 29/29/29
v 0.68750000 1.56250000 0.31250000
v 0.73250000 1.00000000 0.31250000
v 0.49250000 1.00000000 0.31250000
v 0.31250000 1.56250000 0.31250000
vt 0.68750000 0.43750000
vt 0.73250000 1.00000000
vt 0.49250000 1.00000000
vt 0.31250000 0.43750000
vn 0.00000000 0.00000000 -1.00000000
vn 0.00000000 0.00000000 -1.00000000
vn 0.00000000 0.00000000 -1.00000000
vn 0.00000000 0.00000000 -1.00000000
usemtl stone
f 30/30/30 31/31/31 32/32/32 33/33/33
v 0.31250000 1.56250000 0.31250000
v 0.50000000 1.93750000 0.31250000
v 0.68750000 1.56250000 0.31250000
vt 0.31250000 0.43750000
vt 0.50000000 0.06250000
vt 0.68750000 0.43750000
vn 0.00000000 0.00000000 -1.00000000
vn 0.00000000 0.00000000 -1.00000000
vn 0.00000000 0.00000000 -1.00000000
usemtl stone
f 34/34/34 35/35/35 36/36/36
v 0.31250000 1.56250000 0.68750000
v 0.26750000 1.00000000 0.68750000
v 0.49250000 1.00000000 0.68750000
vt 0.31250000 0.43750000
vt 0.26750000 1.00000000
vt 0.49250000 1.00000000
vn 0.00000000 0.00000000 1.00000000
vn 0.00000000 0.00000000 1.00000000
vn 0.00000000 0.00000000 1.00000000
usemtl stone
f 37/37/37 38/38/38 39/39/39
v 0.31250000 1.56250000 0.68750000
v 0.49250000 1.00000000 0.68750000
v 0.73250000 1.00000000 0.68750000
v 0.68750000 1.56250000 0.68750000
vt 0.31250000 0.43750000
vt 0.49250000 1.00000000
vt 0.73250000 1.00000000
vt 0.68750000 0.43750000
vn 0.00000000 0.00000000 1.00000000
vn 0.00000000 0.00000000 1.00000000
vn 0.00000000 0.00000000 1.00000000
vn 0.00000000 0.00000000 1.00000000
usemtl stone
f 40/40/40 41/41/41 42/42/42 43/43/43
v 0.68750000 1.56250000 0.68750000
v 0.50000000 1.93750000 0.68750000
v 0.31250000 1.56250000 0.68750000
vt 0.68750000 0.43750000
vt 0.50000000 0.06250000
vt 0.31250000 0.43750000
vn 0.00000000 0.00000000 1.00000000
vn 0.00000000 0.00000000 1.00000000
vn 0.00000000 0.00000000 1.00000000
usemtl stone
f 44/44/44 45/45/45 46/46/46
v 0.68750000 1.56250000 0.31250000
v 0.68750000 1.56250000 0.68750000
v 0.73250000 1.00000000 0.68750000
v 0.73250000 1.00000000 0.31250000
vt 0.31250000 0.43750000
vt 0.68750000 0.43750000
vt 0.68750000 1.00000000
vt 0.31250000 1.00000000
vn 0.99681528 0.07974522 0.00000000
vn 0.99681528 0.07974522 0.00000000
vn 0.99681528 0.07974522 0.00000000
vn 0.99681528 0.07974522 0.00000000
usemtl stone
f 47/47/47 48/48/48 49/49/49 50/50/50
v 0.50000000 1.93750000 0.31250000
v 0.50000000 1.93750000 0.68750000
v 0.68750000 1.56250000 0.68750000
v 0.68750000 1.56250000 0.31250000
vt 0.31250000 0.06250000
vt 0.68750000 0.06250000
vt 0.68750000 0.43750000
vt 0.31250000 0.43750000
vn 0.89442719 0.44721360 0.00000000
vn 0.89442719 0.44721360 0.00000000
vn 0.89442719 0.44721360 0.00000000
vn 0.89442719 0.44721360 0.00000000
usemtl stone
f 51/51/51 52/52/52 53/53/53 54/54/54
v 0.31250000 1.56250000 0.31250000
v 0.31250000 1.56250000 0.68750000
v 0.50000000 1.93750000 0.68750000
v 0.50000000 1.93750000 0.31250000
vt 0.31250000 0.43750000
vt 0.68750000 0.43750000
vt 0.68750000 0.06250000
vt 0.31250000 0.06250000
vn -0.89442719 0.44721360 0.00000000
vn -0.89442719 0.44721360 0.00000000
vn -0.89442719 0.44721360 0.00000000
vn -0.89442719 0.44721360 0.00000000
usemtl stone
f 55/55/55 56/56/56 57/57/57 58/58/58
v 0.26750000 1.00000000 0.68750000
v 0.31250000 1.56250000 0.68750000
v 0.31250000 1.56250000 0.31250000
v 0.26750000 1.00000000 0.31250000
vt 0.68750000 1.00000000
vt 0.68750000 0.43750000
vt 0.31250000 0.43750000
vt 0.31250000 1.00000000
vn -0.99681528 0.07974522 0.00000000
vn -0.99681528 0.07974522 0.00000000
vn -0.99681528 0.07974522 0.00000000
vn -0.99681528 0.07974522 0.00000000
usemtl stone
f 59/59/59 60/60/60 61/61/61 62/62/62
