# Authored Vestige native monolith; units are blocks.
mtllib standing_stones.mtl
o monolith
v 0.75000000 0.00000000 0.31250000
v 0.25000000 0.00000000 0.31250000
v 0.11363636 1.00000000 0.31250000
v 0.25000000 1.00000000 0.31250000
vt 0.75000000 1.00000000
vt 0.25000000 1.00000000
vt 0.11363636 0.00000000
vt 0.25000000 0.00000000
vn 0.00000000 0.00000000 -1.00000000
vn 0.00000000 0.00000000 -1.00000000
vn 0.00000000 0.00000000 -1.00000000
vn 0.00000000 0.00000000 -1.00000000
usemtl stone
f 1/1/1 2/2/2 3/3/3 4/4/4
v 0.90789474 1.00000000 0.31250000
v 0.75000000 0.00000000 0.31250000
v 0.25000000 1.00000000 0.31250000
vt 0.90789474 0.00000000
vt 0.75000000 1.00000000
vt 0.25000000 0.00000000
vn 0.00000000 0.00000000 -1.00000000
vn 0.00000000 0.00000000 -1.00000000
vn 0.00000000 0.00000000 -1.00000000
usemtl stone
f 5/5/5 6/6/6 7/7/7
v 0.11363636 1.00000000 0.68750000
v 0.25000000 0.00000000 0.68750000
v 0.75000000 0.00000000 0.68750000
v 0.25000000 1.00000000 0.68750000
vt 0.11363636 0.00000000
vt 0.25000000 1.00000000
vt 0.75000000 1.00000000
vt 0.25000000 0.00000000
vn 0.00000000 0.00000000 1.00000000
vn 0.00000000 0.00000000 1.00000000
vn 0.00000000 0.00000000 1.00000000
vn 0.00000000 0.00000000 1.00000000
usemtl stone
f 8/8/8 9/9/9 10/10/10 11/11/11
v 0.25000000 1.00000000 0.68750000
v 0.75000000 0.00000000 0.68750000
v 0.90789474 1.00000000 0.68750000
vt 0.25000000 0.00000000
vt 0.75000000 1.00000000
vt 0.90789474 0.00000000
vn 0.00000000 0.00000000 1.00000000
vn 0.00000000 0.00000000 1.00000000
vn 0.00000000 0.00000000 1.00000000
usemtl stone
f 12/12/12 13/13/13 14/14/14
v 0.75000000 0.00000000 0.31250000
v 0.75000000 0.00000000 0.68750000
v 0.25000000 0.00000000 0.68750000
v 0.25000000 0.00000000 0.31250000
vt 0.75000000 0.31250000
vt 0.75000000 0.68750000
vt 0.25000000 0.68750000
vt 0.25000000 0.31250000
vn 0.00000000 -1.00000000 0.00000000
vn 0.00000000 -1.00000000 0.00000000
vn 0.00000000 -1.00000000 0.00000000
vn 0.00000000 -1.00000000 0.00000000
usemtl stone
f 15/15/15 16/16/16 17/17/17 18/18/18
v 0.90789474 1.00000000 0.68750000
v 0.75000000 0.00000000 0.68750000
v 0.75000000 0.00000000 0.31250000
v 0.90789474 1.00000000 0.31250000
vt 0.68750000 0.00000000
vt 0.68750000 1.00000000
vt 0.31250000 1.00000000
vt 0.31250000 0.00000000
vn 0.98776297 -0.15596257 0.00000000
vn 0.98776297 -0.15596257 0.00000000
vn 0.98776297 -0.15596257 0.00000000
vn 0.98776297 -0.15596257 0.00000000
usemtl stone
f 19/19/19 20/20/20 21/21/21 22/22/22
v 0.25000000 0.00000000 0.31250000
v 0.25000000 0.00000000 0.68750000
v 0.11363636 1.00000000 0.68750000
v 0.11363636 1.00000000 0.31250000
vt 0.31250000 1.00000000
vt 0.68750000 1.00000000
vt 0.68750000 0.00000000
vt 0.31250000 0.00000000
vn -0.99083017 -0.13511320 0.00000000
vn -0.99083017 -0.13511320 0.00000000
vn -0.99083017 -0.13511320 0.00000000
vn -0.99083017 -0.13511320 0.00000000
usemtl stone
f 23/23/23 24/24/24 25/25/25 26/26/26
v 0.11363636 1.00000000 0.31250000
v 0.06250000 1.37500000 0.31250000
v 0.25000000 1.00000000 0.31250000
vt 0.11363636 1.00000000
vt 0.06250000 0.62500000
vt 0.25000000 1.00000000
vn 0.00000000 0.00000000 -1.00000000
vn 0.00000000 0.00000000 -1.00000000
vn 0.00000000 0.00000000 -1.00000000
usemtl stone
f 27/27/27 28/28/28 29/29/29
v 0.93750000 1.18750000 0.31250000
v 0.90789474 1.00000000 0.31250000
v 0.25000000 1.00000000 0.31250000
v 0.06250000 1.37500000 0.31250000
vt 0.93750000 0.81250000
vt 0.90789474 1.00000000
vt 0.25000000 1.00000000
vt 0.06250000 0.62500000
vn 0.00000000 0.00000000 -1.00000000
vn 0.00000000 0.00000000 -1.00000000
vn 0.00000000 0.00000000 -1.00000000
vn 0.00000000 0.00000000 -1.00000000
usemtl stone
f 30/30/30 31/31/31 32/32/32 33/33/33
v 0.81250000 1.68750000 0.31250000
v 0.93750000 1.18750000 0.31250000
v 0.06250000 1.37500000 0.31250000
vt 0.81250000 0.31250000
vt 0.93750000 0.81250000
vt 0.06250000 0.62500000
vn 0.00000000 0.00000000 -1.00000000
vn 0.00000000 0.00000000 -1.00000000
vn 0.00000000 0.00000000 -1.00000000
usemtl stone
f 34/34/34 35/35/35 36/36/36
v 0.06250000 1.37500000 0.31250000
v 0.31250000 1.81250000 0.31250000
v 0.81250000 1.68750000 0.31250000
vt 0.06250000 0.62500000
vt 0.31250000 0.18750000
vt 0.81250000 0.31250000
vn 0.00000000 0.00000000 -1.00000000
vn 0.00000000 0.00000000 -1.00000000
vn 0.00000000 0.00000000 -1.00000000
usemtl stone
f 37/37/37 38/38/38 39/39/39
v 0.06250000 1.37500000 0.68750000
v 0.11363636 1.00000000 0.68750000
v 0.25000000 1.00000000 0.68750000
vt 0.06250000 0.62500000
vt 0.11363636 1.00000000
vt 0.25000000 1.00000000
vn 0.00000000 0.00000000 1.00000000
vn 0.00000000 0.00000000 1.00000000
vn 0.00000000 0.00000000 1.00000000
usemtl stone
f 40/40/40 41/41/41 42/42/42
v 0.06250000 1.37500000 0.68750000
v 0.25000000 1.00000000 0.68750000
v 0.90789474 1.00000000 0.68750000
v 0.93750000 1.18750000 0.68750000
vt 0.06250000 0.62500000
vt 0.25000000 1.00000000
vt 0.90789474 1.00000000
vt 0.93750000 0.81250000
vn 0.00000000 0.00000000 1.00000000
vn 0.00000000 0.00000000 1.00000000
vn 0.00000000 0.00000000 1.00000000
vn 0.00000000 0.00000000 1.00000000
usemtl stone
f 43/43/43 44/44/44 45/45/45 46/46/46
v 0.06250000 1.37500000 0.68750000
v 0.93750000 1.18750000 0.68750000
v 0.81250000 1.68750000 0.68750000
vt 0.06250000 0.62500000
vt 0.93750000 0.81250000
vt 0.81250000 0.31250000
vn 0.00000000 0.00000000 1.00000000
vn 0.00000000 0.00000000 1.00000000
vn 0.00000000 0.00000000 1.00000000
usemtl stone
f 47/47/47 48/48/48 49/49/49
v 0.81250000 1.68750000 0.68750000
v 0.31250000 1.81250000 0.68750000
v 0.06250000 1.37500000 0.68750000
vt 0.81250000 0.31250000
vt 0.31250000 0.18750000
vt 0.06250000 0.62500000
vn 0.00000000 0.00000000 1.00000000
vn 0.00000000 0.00000000 1.00000000
vn 0.00000000 0.00000000 1.00000000
usemtl stone
f 50/50/50 51/51/51 52/52/52
v 0.93750000 1.18750000 0.31250000
v 0.93750000 1.18750000 0.68750000
v 0.90789474 1.00000000 0.68750000
v 0.90789474 1.00000000 0.31250000
vt 0.31250000 0.81250000
vt 0.68750000 0.81250000
vt 0.68750000 1.00000000
vt 0.31250000 1.00000000
vn 0.98776297 -0.15596257 0.00000000
vn 0.98776297 -0.15596257 0.00000000
vn 0.98776297 -0.15596257 0.00000000
vn 0.98776297 -0.15596257 0.00000000
usemtl stone
f 53/53/53 54/54/54 55/55/55 56/56/56
v 0.81250000 1.68750000 0.31250000
v 0.81250000 1.68750000 0.68750000
v 0.93750000 1.18750000 0.68750000
v 0.93750000 1.18750000 0.31250000
vt 0.31250000 0.31250000
vt 0.68750000 0.31250000
vt 0.68750000 0.81250000
vt 0.31250000 0.81250000
vn 0.97014250 0.24253563 0.00000000
vn 0.97014250 0.24253563 0.00000000
vn 0.97014250 0.24253563 0.00000000
vn 0.97014250 0.24253563 0.00000000
usemtl stone
f 57/57/57 58/58/58 59/59/59 60/60/60
v 0.31250000 1.81250000 0.31250000
v 0.31250000 1.81250000 0.68750000
v 0.81250000 1.68750000 0.68750000
v 0.81250000 1.68750000 0.31250000
vt 0.31250000 0.31250000
vt 0.31250000 0.68750000
vt 0.81250000 0.68750000
vt 0.81250000 0.31250000
vn 0.24253563 0.97014250 0.00000000
vn 0.24253563 0.97014250 0.00000000
vn 0.24253563 0.97014250 0.00000000
vn 0.24253563 0.97014250 0.00000000
usemtl stone
f 61/61/61 62/62/62 63/63/63 64/64/64
v 0.06250000 1.37500000 0.31250000
v 0.06250000 1.37500000 0.68750000
v 0.31250000 1.81250000 0.68750000
v 0.31250000 1.81250000 0.31250000
vt 0.31250000 0.62500000
vt 0.68750000 0.62500000
vt 0.68750000 0.18750000
vt 0.31250000 0.18750000
vn -0.86824314 0.49613894 0.00000000
vn -0.86824314 0.49613894 0.00000000
vn -0.86824314 0.49613894 0.00000000
vn -0.86824314 0.49613894 0.00000000
usemtl stone
f 65/65/65 66/66/66 67/67/67 68/68/68
v 0.11363636 1.00000000 0.68750000
v 0.06250000 1.37500000 0.68750000
v 0.06250000 1.37500000 0.31250000
v 0.11363636 1.00000000 0.31250000
vt 0.68750000 1.00000000
vt 0.68750000 0.62500000
vt 0.31250000 0.62500000
vt 0.31250000 1.00000000
vn -0.99083017 -0.13511320 0.00000000
vn -0.99083017 -0.13511320 0.00000000
vn -0.99083017 -0.13511320 0.00000000
vn -0.99083017 -0.13511320 0.00000000
usemtl stone
f 69/69/69 70/70/70 71/71/71 72/72/72
