# Authored Vestige native monolith; units are blocks.
mtllib standing_stones.mtl
o monolith
v 0.56250000 0.25000000 0.25000000
v 0.64583333 0.00000000 0.25000000
v 0.12500000 0.00000000 0.25000000
vt 0.56250000 0.75000000
vt 0.64583333 1.00000000
vt 0.12500000 1.00000000
vn 0.00000000 0.00000000 -1.00000000
vn 0.00000000 0.00000000 -1.00000000
vn 0.00000000 0.00000000 -1.00000000
usemtl stone
f 1/1/1 2/2/2 3/3/3
v 0.12500000 0.00000000 0.25000000
v 0.18750000 0.81250000 0.25000000
v 0.56250000 0.25000000 0.25000000
vt 0.12500000 1.00000000
vt 0.18750000 0.18750000
vt 0.56250000 0.75000000
vn 0.00000000 0.00000000 -1.00000000
vn 0.00000000 0.00000000 -1.00000000
vn 0.00000000 0.00000000 -1.00000000
usemtl stone
f 4/4/4 5/5/5 6/6/6
v 0.12500000 0.00000000 0.75000000
v 0.64583333 0.00000000 0.75000000
v 0.56250000 0.25000000 0.75000000
vt 0.12500000 1.00000000
vt 0.64583333 1.00000000
vt 0.56250000 0.75000000
vn 0.00000000 0.00000000 1.00000000
vn 0.00000000 0.00000000 1.00000000
vn 0.00000000 0.00000000 1.00000000
usemtl stone
f 7/7/7 8/8/8 9/9/9
v 0.56250000 0.25000000 0.75000000
v 0.18750000 0.81250000 0.75000000
v 0.12500000 0.00000000 0.75000000
vt 0.56250000 0.75000000
vt 0.18750000 0.18750000
vt 0.12500000 1.00000000
vn 0.00000000 0.00000000 1.00000000
vn 0.00000000 0.00000000 1.00000000
vn 0.00000000 0.00000000 1.00000000
usemtl stone
f 10/10/10 11/11/11 12/12/12
v 0.56250000 0.25000000 0.25000000
v 0.56250000 0.25000000 0.75000000
v 0.64583333 0.00000000 0.75000000
v 0.64583333 0.00000000 0.25000000
vt 0.25000000 0.75000000
vt 0.75000000 0.75000000
vt 0.75000000 1.00000000
vt 0.25000000 1.00000000
vn 0.94868330 0.31622777 0.00000000
vn 0.94868330 0.31622777 0.00000000
vn 0.94868330 0.31622777 0.00000000
vn 0.94868330 0.31622777 0.00000000
usemtl stone
f 13/13/13 14/14/14 15/15/15 16/16/16
v 0.18750000 0.81250000 0.25000000
v 0.18750000 0.81250000 0.75000000
v 0.56250000 0.25000000 0.75000000
v 0.56250000 0.25000000 0.25000000
vt 0.25000000 0.18750000
vt 0.75000000 0.18750000
vt 0.75000000 0.75000000
vt 0.25000000 0.75000000
vn 0.83205029 0.55470020 0.00000000
vn 0.83205029 0.55470020 0.00000000
vn 0.83205029 0.55470020 0.00000000
vn 0.83205029 0.55470020 0.00000000
usemtl stone
f 17/17/17 18/18/18 19/19/19 20/20/20
v 0.12500000 0.00000000 0.25000000
v 0.12500000 0.00000000 0.75000000
v 0.18750000 0.81250000 0.75000000
v 0.18750000 0.81250000 0.25000000
vt 0.25000000 1.00000000
vt 0.75000000 1.00000000
vt 0.75000000 0.18750000
vt 0.25000000 0.18750000
vn -0.99705449 0.07669650 0.00000000
vn -0.99705449 0.07669650 0.00000000
vn -0.99705449 0.07669650 0.00000000
vn -0.99705449 0.07669650 0.00000000
usemtl stone
f 21/21/21 22/22/22 23/23/23 24/24/24
