# Authored Vestige native monolith; units are blocks.
mtllib standing_stones.mtl
o monolith
v 0.62500000 0.31250000 0.37500000
v 0.66964286 0.00000000 0.37500000
v 0.35156250 0.00000000 0.37500000
vt 0.62500000 0.68750000
vt 0.66964286 1.00000000
vt 0.35156250 1.00000000
vn 0.00000000 0.00000000 -1.00000000
vn 0.00000000 0.00000000 -1.00000000
vn 0.00000000 0.00000000 -1.00000000
usemtl stone
f 1/1/1 2/2/2 3/3/3
v 0.43750000 0.87500000 0.37500000
v 0.62500000 0.31250000 0.37500000
v 0.35156250 0.00000000 0.37500000
v 0.23161765 0.00000000 0.37500000
vt 0.43750000 0.12500000
vt 0.62500000 0.68750000
vt 0.35156250 1.00000000
vt 0.23161765 1.00000000
vn 0.00000000 0.00000000 -1.00000000
vn 0.00000000 0.00000000 -1.00000000
vn 0.00000000 0.00000000 -1.00000000
vn 0.00000000 0.00000000 -1.00000000
usemtl stone
f 4/4/4 5/5/5 6/6/6 7/7/7
v 0.19736842 0.00000000 0.37500000
v 0.25000000 1.00000000 0.37500000
v 0.43750000 0.87500000 0.37500000
v 0.23161765 0.00000000 0.37500000
vt 0.19736842 1.00000000
vt 0.25000000 0.00000000
vt 0.43750000 0.12500000
vt 0.23161765 1.00000000
vn 0.00000000 0.00000000 -1.00000000
vn 0.00000000 0.00000000 -1.00000000
vn 0.00000000 0.00000000 -1.00000000
vn 0.00000000 0.00000000 -1.00000000
usemtl stone
f 8/8/8 9/9/9 10/10/10 11/11/11
v 0.66964286 0.00000000 0.62500000
v 0.62500000 0.31250000 0.62500000
v 0.35156250 0.00000000 0.62500000
vt 0.66964286 1.00000000
vt 0.62500000 0.68750000
vt 0.35156250 1.00000000
vn 0.00000000 0.00000000 1.00000000
vn 0.00000000 0.00000000 1.00000000
vn 0.00000000 0.00000000 1.00000000
usemtl stone
f 12/12/12 13/13/13 14/14/14
v 0.35156250 0.00000000 0.62500000
v 0.62500000 0.31250000 0.62500000
v 0.43750000 0.87500000 0.62500000
v 0.23161765 0.00000000 0.62500000
vt 0.35156250 1.00000000
vt 0.62500000 0.68750000
vt 0.43750000 0.12500000
vt 0.23161765 1.00000000
vn 0.00000000 0.00000000 1.00000000
vn 0.00000000 0.00000000 1.00000000
vn 0.00000000 0.00000000 1.00000000
vn 0.00000000 0.00000000 1.00000000
usemtl stone
f 15/15/15 16/16/16 17/17/17 18/18/18
v 0.43750000 0.87500000 0.62500000
v 0.25000000 1.00000000 0.62500000
v 0.19736842 0.00000000 0.62500000
v 0.23161765 0.00000000 0.62500000
vt 0.43750000 0.12500000
vt 0.25000000 0.00000000
vt 0.19736842 1.00000000
vt 0.23161765 1.00000000
vn 0.00000000 0.00000000 1.00000000
vn 0.00000000 0.00000000 1.00000000
vn 0.00000000 0.00000000 1.00000000
vn 0.00000000 0.00000000 1.00000000
usemtl stone
f 19/19/19 20/20/20 21/21/21 22/22/22
v 0.62500000 0.31250000 0.37500000
v 0.62500000 0.31250000 0.62500000
v 0.66964286 0.00000000 0.62500000
v 0.66964286 0.00000000 0.37500000
vt 0.37500000 0.68750000
vt 0.62500000 0.68750000
vt 0.62500000 1.00000000
vt 0.37500000 1.00000000
vn 0.98994949 0.14142136 0.00000000
vn 0.98994949 0.14142136 0.00000000
vn 0.98994949 0.14142136 0.00000000
vn 0.98994949 0.14142136 0.00000000
usemtl stone
f 23/23/23 24/24/24 25/25/25 26/26/26
v 0.43750000 0.87500000 0.37500000
v 0.43750000 0.87500000 0.62500000
v 0.62500000 0.31250000 0.62500000
v 0.62500000 0.31250000 0.37500000
vt 0.37500000 0.12500000
vt 0.62500000 0.12500000
vt 0.62500000 0.68750000
vt 0.37500000 0.68750000
vn 0.94868330 0.31622777 0.00000000
vn 0.94868330 0.31622777 0.00000000
vn 0.94868330 0.31622777 0.00000000
vn 0.94868330 0.31622777 0.00000000
usemtl stone
f 27/27/27 28/28/28 29/29/29 30/30/30
v 0.25000000 1.00000000 0.37500000
v 0.25000000 1.00000000 0.62500000
v 0.43750000 0.87500000 0.62500000
v 0.43750000 0.87500000 0.37500000
vt 0.25000000 0.37500000
vt 0.25000000 0.62500000
vt 0.43750000 0.62500000
vt 0.43750000 0.37500000
vn 0.55470020 0.83205029 0.00000000
vn 0.55470020 0.83205029 0.00000000
vn 0.55470020 0.83205029 0.00000000
vn 0.55470020 0.83205029 0.00000000
usemtl stone
f 31/31/31 32/32/32 33/33/33 34/34/34
v 0.19736842 0.00000000 0.62500000
v 0.25000000 1.00000000 0.62500000
v 0.25000000 1.00000000 0.37500000
v 0.19736842 0.00000000 0.37500000
vt 0.62500000 1.00000000
vt 0.62500000 0.00000000
vt 0.37500000 0.00000000
vt 0.37500000 1.00000000
vn -0.99861783 0.05255883 0.00000000
vn -0.99861783 0.05255883 0.00000000
vn -0.99861783 0.05255883 0.00000000
vn -0.99861783 0.05255883 0.00000000
usemtl stone
f 35/35/35 36/36/36 37/37/37 38/38/38
