# Authored Vestige native monolith; units are blocks.
mtllib standing_stones.mtl
o monolith
v 0.75000000 0.00000000 0.43750000
v 0.25000000 0.00000000 0.43750000
v 0.18750000 0.75000000 0.43750000
vt 0.75000000 1.00000000
vt 0.25000000 1.00000000
vt 0.18750000 0.25000000
vn 0.00000000 0.00000000 -1.00000000
vn 0.00000000 0.00000000 -1.00000000
vn 0.00000000 0.00000000 -1.00000000
usemtl stone
f 1/1/1 2/2/2 3/3/3
v 0.69736842 1.00000000 0.43750000
v 0.75000000 0.00000000 0.43750000
v 0.18750000 0.75000000 0.43750000
v 0.47321429 1.00000000 0.43750000
vt 0.69736842 0.00000000
vt 0.75000000 1.00000000
vt 0.18750000 0.25000000
vt 0.47321429 0.00000000
vn 0.00000000 0.00000000 -1.00000000
vn 0.00000000 0.00000000 -1.00000000
vn 0.00000000 0.00000000 -1.00000000
vn 0.00000000 0.00000000 -1.00000000
usemtl stone
f 4/4/4 5/5/5 6/6/6 7/7/7
v 0.47321429 1.00000000 0.43750000
v 0.18750000 0.75000000 0.43750000
v 0.27500000 1.00000000 0.43750000
vt 0.47321429 0.00000000
vt 0.18750000 0.25000000
vt 0.27500000 0.00000000
vn 0.00000000 0.00000000 -1.00000000
vn 0.00000000 0.00000000 -1.00000000
vn 0.00000000 0.00000000 -1.00000000
usemtl stone
f 8/8/8 9/9/9 10/10/10
v 0.18750000 0.75000000 0.43750000
v 0.21875000 1.00000000 0.43750000
v 0.27500000 1.00000000 0.43750000
vt 0.18750000 0.25000000
vt 0.21875000 0.00000000
vt 0.27500000 0.00000000
vn 0.00000000 0.00000000 -1.00000000
vn 0.00000000 0.00000000 -1.00000000
vn 0.00000000 0.00000000 -1.00000000
usemtl stone
f 11/11/11 12/12/12 13/13/13
v 0.18750000 0.75000000 0.62500000
v 0.25000000 0.00000000 0.62500000
v 0.75000000 0.00000000 0.62500000
vt 0.18750000 0.25000000
vt 0.25000000 1.00000000
vt 0.75000000 1.00000000
vn 0.00000000 0.00000000 1.00000000
vn 0.00000000 0.00000000 1.00000000
vn 0.00000000 0.00000000 1.00000000
usemtl stone
f 14/14/14 15/15/15 16/16/16
v 0.18750000 0.75000000 0.62500000
v 0.75000000 0.00000000 0.62500000
v 0.69736842 1.00000000 0.62500000
v 0.47321429 1.00000000 0.62500000
vt 0.18750000 0.25000000
vt 0.75000000 1.00000000
vt 0.69736842 0.00000000
vt 0.47321429 0.00000000
vn 0.00000000 0.00000000 1.00000000
vn 0.00000000 0.00000000 1.00000000
vn 0.00000000 0.00000000 1.00000000
vn 0.00000000 0.00000000 1.00000000
usemtl stone
f 17/17/17 18/18/18 19/19/19 20/20/20
v 0.18750000 0.75000000 0.62500000
v 0.47321429 1.00000000 0.62500000
v 0.27500000 1.00000000 0.62500000
vt 0.18750000 0.25000000
vt 0.47321429 0.00000000
vt 0.27500000 0.00000000
vn 0.00000000 0.00000000 1.00000000
vn 0.00000000 0.00000000 1.00000000
vn 0.00000000 0.00000000 1.00000000
usemtl stone
f 21/21/21 22/22/22 23/23/23
v 0.21875000 1.00000000 0.62500000
v 0.18750000 0.75000000 0.62500000
v 0.27500000 1.00000000 0.62500000
vt 0.21875000 0.00000000
vt 0.18750000 0.25000000
vt 0.27500000 0.00000000
vn 0.00000000 0.00000000 1.00000000
vn 0.00000000 0.00000000 1.00000000
vn 0.00000000 0.00000000 1.00000000
usemtl stone
f 24/24/24 25/25/25 26/26/26
v 0.75000000 0.00000000 0.43750000
v 0.75000000 0.00000000 0.62500000
v 0.25000000 0.00000000 0.62500000
v 0.25000000 0.00000000 0.43750000
vt 0.75000000 0.43750000
vt 0.75000000 0.62500000
vt 0.25000000 0.62500000
vt 0.25000000 0.43750000
vn 0.00000000 -1.00000000 0.00000000
vn 0.00000000 -1.00000000 0.00000000
vn 0.00000000 -1.00000000 0.00000000
vn 0.00000000 -1.00000000 0.00000000
usemtl stone
f 27/27/27 28/28/28 29/29/29 30/30/30
v 0.69736842 1.00000000 0.62500000
v 0.75000000 0.00000000 0.62500000
v 0.75000000 0.00000000 0.43750000
v 0.69736842 1.00000000 0.43750000
vt 0.62500000 0.00000000
vt 0.62500000 1.00000000
vt 0.43750000 1.00000000
vt 0.43750000 0.00000000
vn 0.99861783 0.05255883 0.00000000
vn 0.99861783 0.05255883 0.00000000
vn 0.99861783 0.05255883 0.00000000
vn 0.99861783 0.05255883 0.00000000
usemtl stone
f 31/31/31 32/32/32 33/33/33 34/34/34
v 0.18750000 0.75000000 0.43750000
v 0.18750000 0.75000000 0.62500000
v 0.21875000 1.00000000 0.62500000
v 0.21875000 1.00000000 0.43750000
vt 0.43750000 0.25000000
vt 0.62500000 0.25000000
vt 0.62500000 0.00000000
vt 0.43750000 0.00000000
vn -0.99227788 0.12403473 0.00000000
vn -0.99227788 0.12403473 0.00000000
vn -0.99227788 0.12403473 0.00000000
vn -0.99227788 0.12403473 0.00000000
usemtl stone
f 35/35/35 36/36/36 37/37/37 38/38/38
v 0.25000000 0.00000000 0.43750000
v 0.25000000 0.00000000 0.62500000
v 0.18750000 0.75000000 0.62500000
v 0.18750000 0.75000000 0.43750000
vt 0.43750000 1.00000000
vt 0.62500000 1.00000000
vt 0.62500000 0.25000000
vt 0.43750000 0.25000000
vn -0.99654576 -0.08304548 0.00000000
vn -0.99654576 -0.08304548 0.00000000
vn -0.99654576 -0.08304548 0.00000000
vn -0.99654576 -0.08304548 0.00000000
usemtl stone
f 39/39/39 40/40/40 41/41/41 42/42/42
v 0.68750000 1.18750000 0.43750000
v 0.69736842 1.00000000 0.43750000
v 0.47321429 1.00000000 0.43750000
vt 0.68750000 0.81250000
vt 0.69736842 1.00000000
vt 0.47321429 1.00000000
vn 0.00000000 0.00000000 -1.00000000
vn 0.00000000 0.00000000 -1.00000000
vn 0.00000000 0.00000000 -1.00000000
usemtl stone
f 43/43/43 44/44/44 45/45/45
v 0.62500000 2.00000000 0.43750000
v 0.68750000 1.18750000 0.43750000
v 0.47321429 1.00000000 0.43750000
v 0.27500000 1.00000000 0.43750000
vt 0.62500000 0.00000000
vt 0.68750000 0.81250000
vt 0.47321429 1.00000000
vt 0.27500000 1.00000000
vn 0.00000000 0.00000000 -1.00000000
vn 0.00000000 0.00000000 -1.00000000
vn 0.00000000 0.00000000 -1.00000000
vn 0.00000000 0.00000000 -1.00000000
usemtl stone
f 46/46/46 47/47/47 48/48/48 49/49/49
v 0.21875000 1.00000000 0.43750000
v 0.31250000 1.75000000 0.43750000
v 0.62500000 2.00000000 0.43750000
v 0.27500000 1.00000000 0.43750000
vt 0.21875000 1.00000000
vt 0.31250000 0.25000000
vt 0.62500000 0.00000000
vt 0.27500000 1.00000000
vn 0.00000000 0.00000000 -1.00000000
vn 0.00000000 0.00000000 -1.00000000
vn 0.00000000 0.00000000 -1.00000000
vn 0.00000000 0.00000000 -1.00000000
usemtl stone
f 50/50/50 51/51/51 52/52/52 53/53/53
v 0.69736842 1.00000000 0.62500000
v 0.68750000 1.18750000 0.62500000
v 0.47321429 1.00000000 0.62500000
vt 0.69736842 1.00000000
vt 0.68750000 0.81250000
vt 0.47321429 1.00000000
vn 0.00000000 0.00000000 1.00000000
vn 0.00000000 0.00000000 1.00000000
vn 0.00000000 0.00000000 1.00000000
usemtl stone
f 54/54/54 55/55/55 56/56/56
v 0.47321429 1.00000000 0.62500000
v 0.68750000 1.18750000 0.62500000
v 0.62500000 2.00000000 0.62500000
v 0.27500000 1.00000000 0.62500000
vt 0.47321429 1.00000000
vt 0.68750000 0.81250000
vt 0.62500000 0.00000000
vt 0.27500000 1.00000000
vn 0.00000000 0.00000000 1.00000000
vn 0.00000000 0.00000000 1.00000000
vn 0.00000000 0.00000000 1.00000000
vn 0.00000000 0.00000000 1.00000000
usemtl stone
f 57/57/57 58/58/58 59/59/59 60/60/60
v 0.62500000 2.00000000 0.62500000
v 0.31250000 1.75000000 0.62500000
v 0.21875000 1.00000000 0.62500000
v 0.27500000 1.00000000 0.62500000
vt 0.62500000 0.00000000
vt 0.31250000 0.25000000
vt 0.21875000 1.00000000
vt 0.27500000 1.00000000
vn 0.00000000 0.00000000 1.00000000
vn 0.00000000 0.00000000 1.00000000
vn 0.00000000 0.00000000 1.00000000
vn 0.00000000 0.00000000 1.00000000
usemtl stone
f 61/61/61 62/62/62 63/63/63 64/64/64
v 0.68750000 1.18750000 0.43750000
v 0.68750000 1.18750000 0.62500000
v 0.69736842 1.00000000 0.62500000
v 0.69736842 1.00000000 0.43750000
vt 0.43750000 0.81250000
vt 0.62500000 0.81250000
vt 0.62500000 1.00000000
vt 0.43750000 1.00000000
vn 0.99861783 0.05255883 0.00000000
vn 0.99861783 0.05255883 0.00000000
vn 0.99861783 0.05255883 0.00000000
vn 0.99861783 0.05255883 0.00000000
usemtl stone
f 65/65/65 66/66/66 67/67/67 68/68/68
v 0.62500000 2.00000000 0.43750000
v 0.62500000 2.00000000 0.62500000
v 0.68750000 1.18750000 0.62500000
v 0.68750000 1.18750000 0.43750000
vt 0.43750000 0.00000000
vt 0.62500000 0.00000000
vt 0.62500000 0.81250000
vt 0.43750000 0.81250000
vn 0.99705449 0.07669650 0.00000000
vn 0.99705449 0.07669650 0.00000000
vn 0.99705449 0.07669650 0.00000000
vn 0.99705449 0.07669650 0.00000000
usemtl stone
f 69/69/69 70/70/70 71/71/71 72/72/72
v 0.31250000 1.75000000 0.43750000
v 0.31250000 1.75000000 0.62500000
v 0.62500000 2.00000000 0.62500000
v 0.62500000 2.00000000 0.43750000
vt 0.31250000 0.43750000
vt 0.31250000 0.62500000
vt 0.62500000 0.62500000
vt 0.62500000 0.43750000
vn -0.62469505 0.78086881 0.00000000
vn -0.62469505 0.78086881 0.00000000
vn -0.62469505 0.78086881 0.00000000
vn -0.62469505 0.78086881 0.00000000
usemtl stone
f 73/73/73 74/74/74 75/75/75 76/76/76
v 0.21875000 1.00000000 0.62500000
v 0.31250000 1.75000000 0.62500000
v 0.31250000 1.75000000 0.43750000
v 0.21875000 1.00000000 0.43750000
vt 0.62500000 1.00000000
vt 0.62500000 0.25000000
vt 0.43750000 0.25000000
vt 0.43750000 1.00000000
vn -0.99227788 0.12403473 0.00000000
vn -0.99227788 0.12403473 0.00000000
vn -0.99227788 0.12403473 0.00000000
vn -0.99227788 0.12403473 0.00000000
usemtl stone
f 77/77/77 78/78/78 79/79/79 80/80/80
