# Authored Vestige native monolith; units are blocks.
mtllib standing_stones.mtl
o monolith
v 0.68750000 0.00000000 0.37500000
v 0.18750000 0.00000000 0.37500000
v 0.18750000 0.81250000 0.37500000
vt 0.68750000 1.00000000
vt 0.18750000 1.00000000
vt 0.18750000 0.18750000
vn 0.00000000 0.00000000 -1.00000000
vn 0.00000000 0.00000000 -1.00000000
vn 0.00000000 0.00000000 -1.00000000
usemtl stone
f 1/1/1 2/2/2 3/3/3
v 0.75000000 0.43750000 0.37500000
v 0.68750000 0.00000000 0.37500000
v 0.18750000 0.81250000 0.37500000
vt 0.75000000 0.56250000
vt 0.68750000 1.00000000
vt 0.18750000 0.18750000
vn 0.00000000 0.00000000 -1.00000000
vn 0.00000000 0.00000000 -1.00000000
vn 0.00000000 0.00000000 -1.00000000
usemtl stone
f 4/4/4 5/5/5 6/6/6
v 0.66964286 1.00000000 0.37500000
v 0.75000000 0.43750000 0.37500000
v 0.18750000 0.81250000 0.37500000
v 0.35156250 1.00000000 0.37500000
vt 0.66964286 0.00000000
vt 0.75000000 0.56250000
vt 0.18750000 0.18750000
vt 0.35156250 0.00000000
vn 0.00000000 0.00000000 -1.00000000
vn 0.00000000 0.00000000 -1.00000000
vn 0.00000000 0.00000000 -1.00000000
vn 0.00000000 0.00000000 -1.00000000
usemtl stone
f 7/7/7 8/8/8 9/9/9 10/10/10
v 0.35156250 1.00000000 0.37500000
v 0.18750000 0.81250000 0.37500000
v 0.23161765 1.00000000 0.37500000
vt 0.35156250 0.00000000
vt 0.18750000 0.18750000
vt 0.23161765 0.00000000
vn 0.00000000 0.00000000 -1.00000000
vn 0.00000000 0.00000000 -1.00000000
vn 0.00000000 0.00000000 -1.00000000
usemtl stone
f 11/11/11 12/12/12 13/13/13
v 0.18750000 0.81250000 0.37500000
v 0.19736842 1.00000000 0.37500000
v 0.23161765 1.00000000 0.37500000
vt 0.18750000 0.18750000
vt 0.19736842 0.00000000
vt 0.23161765 0.00000000
vn 0.00000000 0.00000000 -1.00000000
vn 0.00000000 0.00000000 -1.00000000
vn 0.00000000 0.00000000 -1.00000000
usemtl stone
f 14/14/14 15/15/15 16/16/16
v 0.18750000 0.81250000 0.62500000
v 0.18750000 0.00000000 0.62500000
v 0.68750000 0.00000000 0.62500000
vt 0.18750000 0.18750000
vt 0.18750000 1.00000000
vt 0.68750000 1.00000000
vn 0.00000000 0.00000000 1.00000000
vn 0.00000000 0.00000000 1.00000000
vn 0.00000000 0.00000000 1.00000000
usemtl stone
f 17/17/17 18/18/18 19/19/19
v 0.18750000 0.81250000 0.62500000
v 0.68750000 0.00000000 0.62500000
v 0.75000000 0.43750000 0.62500000
vt 0.18750000 0.18750000
vt 0.68750000 1.00000000
vt 0.75000000 0.56250000
vn 0.00000000 0.00000000 1.00000000
vn 0.00000000 0.00000000 1.00000000
vn 0.00000000 0.00000000 1.00000000
usemtl stone
f 20/20/20 21/21/21 22/22/22
v 0.18750000 0.81250000 0.62500000
v 0.75000000 0.43750000 0.62500000
v 0.66964286 1.00000000 0.62500000
v 0.35156250 1.00000000 0.62500000
vt 0.18750000 0.18750000
vt 0.75000000 0.56250000
vt 0.66964286 0.00000000
vt 0.35156250 0.00000000
vn 0.00000000 0.00000000 1.00000000
vn 0.00000000 0.00000000 1.00000000
vn 0.00000000 0.00000000 1.00000000
vn 0.00000000 0.00000000 1.00000000
usemtl stone
f 23/23/23 24/24/24 25/25/25 26/26/26
v 0.18750000 0.81250000 0.62500000
v 0.35156250 1.00000000 0.62500000
v 0.23161765 1.00000000 0.62500000
vt 0.18750000 0.18750000
vt 0.35156250 0.00000000
vt 0.23161765 0.00000000
vn 0.00000000 0.00000000 1.00000000
vn 0.00000000 0.00000000 1.00000000
vn 0.00000000 0.00000000 1.00000000
usemtl stone
f 27/27/27 28/28/28 29/29/29
v 0.19736842 1.00000000 0.62500000
v 0.18750000 0.81250000 0.62500000
v 0.23161765 1.00000000 0.62500000
vt 0.19736842 0.00000000
vt 0.18750000 0.18750000
vt 0.23161765 0.00000000
vn 0.00000000 0.00000000 1.00000000
vn 0.00000000 0.00000000 1.00000000
vn 0.00000000 0.00000000 1.00000000
usemtl stone
f 30/30/30 31/31/31 32/32/32
v 0.68750000 0.00000000 0.37500000
v 0.68750000 0.00000000 0.62500000
v 0.18750000 0.00000000 0.62500000
v 0.18750000 0.00000000 0.37500000
vt 0.68750000 0.37500000
vt 0.68750000 0.62500000
vt 0.18750000 0.62500000
vt 0.18750000 0.37500000
vn 0.00000000 -1.00000000 0.00000000
vn 0.00000000 -1.00000000 0.00000000
vn 0.00000000 -1.00000000 0.00000000
vn 0.00000000 -1.00000000 0.00000000
usemtl stone
f 33/33/33 34/34/34 35/35/35 36/36/36
v 0.75000000 0.43750000 0.37500000
v 0.75000000 0.43750000 0.62500000
v 0.68750000 0.00000000 0.62500000
v 0.68750000 0.00000000 0.37500000
vt 0.37500000 0.56250000
vt 0.62500000 0.56250000
vt 0.62500000 1.00000000
vt 0.37500000 1.00000000
vn 0.98994949 -0.14142136 0.00000000
vn 0.98994949 -0.14142136 0.00000000
vn 0.98994949 -0.14142136 0.00000000
vn 0.98994949 -0.14142136 0.00000000
usemtl stone
f 37/37/37 38/38/38 39/39/39 40/40/40
v 0.66964286 1.00000000 0.62500000
v 0.75000000 0.43750000 0.62500000
v 0.75000000 0.43750000 0.37500000
v 0.66964286 1.00000000 0.37500000
vt 0.62500000 0.00000000
vt 0.62500000 0.56250000
vt 0.37500000 0.56250000
vt 0.37500000 0.00000000
vn 0.98994949 0.14142136 0.00000000
vn 0.98994949 0.14142136 0.00000000
vn 0.98994949 0.14142136 0.00000000
vn 0.98994949 0.14142136 0.00000000
usemtl stone
f 41/41/41 42/42/42 43/43/43 44/44/44
v 0.18750000 0.81250000 0.37500000
v 0.18750000 0.81250000 0.62500000
v 0.19736842 1.00000000 0.62500000
v 0.19736842 1.00000000 0.37500000
vt 0.37500000 0.18750000
vt 0.62500000 0.18750000
vt 0.62500000 0.00000000
vt 0.37500000 0.00000000
vn -0.99861783 0.05255883 0.00000000
vn -0.99861783 0.05255883 0.00000000
vn -0.99861783 0.05255883 0.00000000
vn -0.99861783 0.05255883 0.00000000
usemtl stone
f 45/45/45 46/46/46 47/47/47 48/48/48
v 0.18750000 0.00000000 0.37500000
v 0.18750000 0.00000000 0.62500000
v 0.18750000 0.81250000 0.62500000
v 0.18750000 0.81250000 0.37500000
vt 0.37500000 1.00000000
vt 0.62500000 1.00000000
vt 0.62500000 0.18750000
vt 0.37500000 0.18750000
vn -1.00000000 0.00000000 0.00000000
vn -1.00000000 0.00000000 0.00000000
vn -1.00000000 0.00000000 0.00000000
vn -1.00000000 0.00000000 0.00000000
usemtl stone
f 49/49/49 50/50/50 51/51/51 52/52/52
