# Authored Vestige native monolith; units are blocks.
mtllib standing_stones.mtl
o monolith
v 0.93750000 0.00000000 0.25000000
v 0.06250000 0.00000000 0.25000000
v 0.12500000 1.00000000 0.25000000
vt 0.93750000 1.00000000
vt 0.06250000 1.00000000
vt 0.12500000 0.00000000
vn 0.00000000 0.00000000 -1.00000000
vn 0.00000000 0.00000000 -1.00000000
vn 0.00000000 0.00000000 -1.00000000
usemtl stone
f 1/1/1 2/2/2 3/3/3
v 0.81250000 0.50000000 0.25000000
v 0.93750000 0.00000000 0.25000000
v 0.12500000 1.00000000 0.25000000
vt 0.81250000 0.50000000
vt 0.93750000 1.00000000
vt 0.12500000 0.00000000
vn 0.00000000 0.00000000 -1.00000000
vn 0.00000000 0.00000000 -1.00000000
vn 0.00000000 0.00000000 -1.00000000
usemtl stone
f 4/4/4 5/5/5 6/6/6
v 0.64583333 1.00000000 0.25000000
v 0.81250000 0.50000000 0.25000000
v 0.12500000 1.00000000 0.25000000
vt 0.64583333 0.00000000
vt 0.81250000 0.50000000
vt 0.12500000 0.00000000
vn 0.00000000 0.00000000 -1.00000000
vn 0.00000000 0.00000000 -1.00000000
vn 0.00000000 0.00000000 -1.00000000
usemtl stone
f 7/7/7 8/8/8 9/9/9
v 0.12500000 1.00000000 0.75000000
v 0.06250000 0.00000000 0.75000000
v 0.93750000 0.00000000 0.75000000
vt 0.12500000 0.00000000
vt 0.06250000 1.00000000
vt 0.93750000 1.00000000
vn 0.00000000 0.00000000 1.00000000
vn 0.00000000 0.00000000 1.00000000
vn 0.00000000 0.00000000 1.00000000
usemtl stone
f 10/10/10 11/11/11 12/12/12
v 0.12500000 1.00000000 0.75000000
v 0.93750000 0.00000000 0.75000000
v 0.81250000 0.50000000 0.75000000
vt 0.12500000 0.00000000
vt 0.93750000 1.00000000
vt 0.81250000 0.50000000
vn 0.00000000 0.00000000 1.00000000
vn 0.00000000 0.00000000 1.00000000
vn 0.00000000 0.00000000 1.00000000
usemtl stone
f 13/13/13 14/14/14 15/15/15
v 0.12500000 1.00000000 0.75000000
v 0.81250000 0.50000000 0.75000000
v 0.64583333 1.00000000 0.75000000
vt 0.12500000 0.00000000
vt 0.81250000 0.50000000
vt 0.64583333 0.00000000
vn 0.00000000 0.00000000 1.00000000
vn 0.00000000 0.00000000 1.00000000
vn 0.00000000 0.00000000 1.00000000
usemtl stone
f 16/16/16 17/17/17 18/18/18
v 0.93750000 0.00000000 0.25000000
v 0.93750000 0.00000000 0.75000000
v 0.06250000 0.00000000 0.75000000
v 0.06250000 0.00000000 0.25000000
vt 0.93750000 0.25000000
vt 0.93750000 0.75000000
vt 0.06250000 0.75000000
vt 0.06250000 0.25000000
vn 0.00000000 -1.00000000 0.00000000
vn 0.00000000 -1.00000000 0.00000000
vn 0.00000000 -1.00000000 0.00000000
vn 0.00000000 -1.00000000 0.00000000
usemtl stone
f 19/19/19 20/20/20 21/21/21 22/22/22
v 0.81250000 0.50000000 0.25000000
v 0.81250000 0.50000000 0.75000000
v 0.93750000 0.00000000 0.75000000
v 0.93750000 0.00000000 0.25000000
vt 0.25000000 0.50000000
vt 0.75000000 0.50000000
vt 0.75000000 1.00000000
vt 0.25000000 1.00000000
vn 0.97014250 0.24253563 0.00000000
vn 0.97014250 0.24253563 0.00000000
vn 0.97014250 0.24253563 0.00000000
vn 0.97014250 0.24253563 0.00000000
usemtl stone
f 23/23/23 24/24/24 25/25/25 26/26/26
v 0.64583333 1.00000000 0.75000000
v 0.81250000 0.50000000 0.75000000
v 0.81250000 0.50000000 0.25000000
v 0.64583333 1.00000000 0.25000000
vt 0.75000000 0.00000000
vt 0.75000000 0.50000000
vt 0.25000000 0.50000000
vt 0.25000000 0.00000000
vn 0.94868330 0.31622777 0.00000000
vn 0.94868330 0.31622777 0.00000000
vn 0.94868330 0.31622777 0.00000000
vn 0.94868330 0.31622777 0.00000000
usemtl stone
f 27/27/27 28/28/28 29/29/29 30/30/30
v 0.06250000 0.00000000 0.25000000
v 0.06250000 0.00000000 0.75000000
v 0.12500000 1.00000000 0.75000000
v 0.12500000 1.00000000 0.25000000
vt 0.25000000 1.00000000
vt 0.75000000 1.00000000
vt 0.75000000 0.00000000
vt 0.25000000 0.00000000
vn -0.99805258 0.06237829 0.00000000
vn -0.99805258 0.06237829 0.00000000
vn -0.99805258 0.06237829 0.00000000
vn -0.99805258 0.06237829 0.00000000
usemtl stone
f 31/31/31 32/32/32 33/33/33 34/34/34
