# Authored Vestige native monolith; units are blocks.
mtllib standing_stones.mtl
o monolith
v 0.66700893 0.00000000 0.37500000
v 0.20950893 0.00000000 0.37500000
v 0.20950893 0.82160714 0.37500000
vt 0.66700893 1.00000000
vt 0.20950893 1.00000000
vt 0.20950893 0.17839286
vn 0.00000000 0.00000000 -1.00000000
vn 0.00000000 0.00000000 -1.00000000
vn 0.00000000 0.00000000 -1.00000000
usemtl stone
f 1/1/1 2/2/2 3/3/3
v 0.72419643 0.47848214 0.37500000
v 0.66700893 0.00000000 0.37500000
v 0.20950893 0.82160714 0.37500000
vt 0.72419643 0.52151786
vt 0.66700893 1.00000000
vt 0.20950893 0.17839286
vn -0.00000000 0.00000000 -1.00000000
vn -0.00000000 0.00000000 -1.00000000
vn -0.00000000 0.00000000 -1.00000000
usemtl stone
f 4/4/4 5/5/5 6/6/6
v 0.64969388 1.00000000 0.37500000
v 0.72419643 0.47848214 0.37500000
v 0.20950893 0.82160714 0.37500000
v 0.36560268 1.00000000 0.37500000
vt 0.64969388 0.00000000
vt 0.72419643 0.52151786
vt 0.20950893 0.17839286
vt 0.36560268 0.00000000
vn 0.00000000 0.00000000 -1.00000000
vn 0.00000000 0.00000000 -1.00000000
vn 0.00000000 0.00000000 -1.00000000
vn 0.00000000 0.00000000 -1.00000000
usemtl stone
f 7/7/7 8/8/8 9/9/9 10/10/10
v 0.36560268 1.00000000 0.37500000
v 0.20950893 0.82160714 0.37500000
v 0.25148372 1.00000000 0.37500000
vt 0.36560268 0.00000000
vt 0.20950893 0.17839286
vt 0.25148372 0.00000000
vn 0.00000000 0.00000000 -1.00000000
vn 0.00000000 0.00000000 -1.00000000
vn 0.00000000 0.00000000 -1.00000000
usemtl stone
f 11/11/11 12/12/12 13/13/13
v 0.20950893 0.82160714 0.37500000
v 0.21889803 1.00000000 0.37500000
v 0.25148372 1.00000000 0.37500000
vt 0.20950893 0.17839286
vt 0.21889803 0.00000000
vt 0.25148372 0.00000000
vn 0.00000000 0.00000000 -1.00000000
vn 0.00000000 0.00000000 -1.00000000
vn 0.00000000 0.00000000 -1.00000000
usemtl stone
f 14/14/14 15/15/15 16/16/16
v 0.18750000 0.81250000 0.62500000
v 0.18750000 0.00000000 0.62500000
v 0.68750000 0.00000000 0.62500000
vt 0.18750000 0.18750000
vt 0.18750000 1.00000000
vt 0.68750000 1.00000000
vn 0.00000000 0.00000000 1.00000000
vn 0.00000000 0.00000000 1.00000000
vn 0.00000000 0.00000000 1.00000000
usemtl stone
f 17/17/17 18/18/18 19/19/19
v 0.18750000 0.81250000 0.62500000
v 0.68750000 0.00000000 0.62500000
v 0.75000000 0.43750000 0.62500000
vt 0.18750000 0.18750000
vt 0.68750000 1.00000000
vt 0.75000000 0.56250000
vn 0.00000000 0.00000000 1.00000000
vn 0.00000000 0.00000000 1.00000000
vn 0.00000000 0.00000000 1.00000000
usemtl stone
f 20/20/20 21/21/21 22/22/22
v 0.18750000 0.81250000 0.62500000
v 0.75000000 0.43750000 0.62500000
v 0.66964286 1.00000000 0.62500000
v 0.35156250 1.00000000 0.62500000
vt 0.18750000 0.18750000
vt 0.75000000 0.56250000
vt 0.66964286 0.00000000
vt 0.35156250 0.00000000
vn 0.00000000 0.00000000 1.00000000
vn 0.00000000 0.00000000 1.00000000
vn 0.00000000 0.00000000 1.00000000
vn 0.00000000 0.00000000 1.00000000
usemtl stone
f 23/23/23 24/24/24 25/25/25 26/26/26
v 0.18750000 0.81250000 0.62500000
v 0.35156250 1.00000000 0.62500000
v 0.23161765 1.00000000 0.62500000
vt 0.18750000 0.18750000
vt 0.35156250 0.00000000
vt 0.23161765 0.00000000
vn 0.00000000 0.00000000 1.00000000
vn 0.00000000 0.00000000 1.00000000
vn 0.00000000 0.00000000 1.00000000
usemtl stone
f 27/27/27 28/28/28 29/29/29
v 0.19736842 1.00000000 0.62500000
v 0.18750000 0.81250000 0.62500000
v 0.23161765 1.00000000 0.62500000
vt 0.19736842 0.00000000
vt 0.18750000 0.18750000
vt 0.23161765 0.00000000
vn 0.00000000 0.00000000 1.00000000
vn 0.00000000 0.00000000 1.00000000
vn 0.00000000 0.00000000 1.00000000
usemtl stone
f 30/30/30 31/31/31 32/32/32
v 0.66700893 0.00000000 0.37500000
v 0.68750000 0.00000000 0.42500000
v 0.18750000 0.00000000 0.42500000
v 0.20950893 0.00000000 0.37500000
vt 0.66700893 0.37500000
vt 0.68750000 0.42500000
vt 0.18750000 0.42500000
vt 0.20950893 0.37500000
vn 0.00000000 -1.00000000 0.00000000
vn 0.00000000 -1.00000000 0.00000000
vn 0.00000000 -1.00000000 0.00000000
vn 0.00000000 -1.00000000 0.00000000
usemtl edge
f 33/33/33 34/34/34 35/35/35 36/36/36
v 0.68750000 0.00000000 0.42500000
v 0.68750000 0.00000000 0.62500000
v 0.18750000 0.00000000 0.62500000
v 0.18750000 0.00000000 0.42500000
vt 0.68750000 0.42500000
vt 0.68750000 0.62500000
vt 0.18750000 0.62500000
vt 0.18750000 0.42500000
vn 0.00000000 -1.00000000 0.00000000
vn 0.00000000 -1.00000000 0.00000000
vn 0.00000000 -1.00000000 0.00000000
vn 0.00000000 -1.00000000 0.00000000
usemtl stone
f 37/37/37 38/38/38 39/39/39 40/40/40
v 0.72419643 0.47848214 0.37500000
v 0.75000000 0.43750000 0.42500000
v 0.68750000 0.00000000 0.42500000
v 0.66700893 0.00000000 0.37500000
vt 0.37500000 0.52151786
vt 0.42500000 0.56250000
vt 0.42500000 1.00000000
vt 0.37500000 1.00000000
vn 0.88256004 -0.11532038 -0.45583878
vn 0.88256004 -0.11532038 -0.45583878
vn 0.88256004 -0.11532038 -0.45583878
vn 0.88256004 -0.11532038 -0.45583878
usemtl edge
f 41/41/41 42/42/42 43/43/43 44/44/44
v 0.75000000 0.43750000 0.42500000
v 0.75000000 0.43750000 0.62500000
v 0.68750000 0.00000000 0.62500000
v 0.68750000 0.00000000 0.42500000
vt 0.42500000 0.56250000
vt 0.62500000 0.56250000
vt 0.62500000 1.00000000
vt 0.42500000 1.00000000
vn 0.98994949 -0.14142136 0.00000000
vn 0.98994949 -0.14142136 0.00000000
vn 0.98994949 -0.14142136 0.00000000
vn 0.98994949 -0.14142136 0.00000000
usemtl stone
f 45/45/45 46/46/46 47/47/47 48/48/48
v 0.66964286 1.00000000 0.42500000
v 0.75000000 0.43750000 0.42500000
v 0.72419643 0.47848214 0.37500000
v 0.64969388 1.00000000 0.37500000
vt 0.42500000 0.00000000
vt 0.42500000 0.56250000
vt 0.37500000 0.52151786
vt 0.37500000 0.00000000
vn 0.92073347 0.13153335 -0.36735386
vn 0.92073347 0.13153335 -0.36735386
vn 0.92073347 0.13153335 -0.36735386
vn 0.92073347 0.13153335 -0.36735386
usemtl edge
f 49/49/49 50/50/50 51/51/51 52/52/52
v 0.66964286 1.00000000 0.62500000
v 0.75000000 0.43750000 0.62500000
v 0.75000000 0.43750000 0.42500000
v 0.66964286 1.00000000 0.42500000
vt 0.62500000 0.00000000
vt 0.62500000 0.56250000
vt 0.42500000 0.56250000
vt 0.42500000 0.00000000
vn 0.98994949 0.14142136 0.00000000
vn 0.98994949 0.14142136 0.00000000
vn 0.98994949 0.14142136 0.00000000
vn 0.98994949 0.14142136 0.00000000
usemtl stone
f 53/53/53 54/54/54 55/55/55 56/56/56
v 0.20950893 0.82160714 0.37500000
v 0.18750000 0.81250000 0.42500000
v 0.19736842 1.00000000 0.42500000
v 0.21889803 1.00000000 0.37500000
vt 0.37500000 0.17839286
vt 0.42500000 0.18750000
vt 0.42500000 0.00000000
vt 0.37500000 0.00000000
vn -0.91740044 0.04828423 -0.39502539
vn -0.91740044 0.04828423 -0.39502539
vn -0.91740044 0.04828423 -0.39502539
vn -0.91740044 0.04828423 -0.39502539
usemtl edge
f 57/57/57 58/58/58 59/59/59 60/60/60
v 0.18750000 0.81250000 0.42500000
v 0.18750000 0.81250000 0.62500000
v 0.19736842 1.00000000 0.62500000
v 0.19736842 1.00000000 0.42500000
vt 0.42500000 0.18750000
vt 0.62500000 0.18750000
vt 0.62500000 0.00000000
vt 0.42500000 0.00000000
vn -0.99861783 0.05255883 0.00000000
vn -0.99861783 0.05255883 0.00000000
vn -0.99861783 0.05255883 0.00000000
vn -0.99861783 0.05255883 0.00000000
usemtl stone
f 61/61/61 62/62/62 63/63/63 64/64/64
v 0.20950893 0.00000000 0.37500000
v 0.18750000 0.00000000 0.42500000
v 0.18750000 0.81250000 0.42500000
v 0.20950893 0.82160714 0.37500000
vt 0.37500000 1.00000000
vt 0.42500000 1.00000000
vt 0.42500000 0.18750000
vt 0.37500000 0.17839286
vn -0.91525477 0.00000000 -0.40287554
vn -0.91525477 0.00000000 -0.40287554
vn -0.91525477 0.00000000 -0.40287554
vn -0.91525477 0.00000000 -0.40287554
usemtl edge
f 65/65/65 66/66/66 67/67/67 68/68/68
v 0.18750000 0.00000000 0.42500000
v 0.18750000 0.00000000 0.62500000
v 0.18750000 0.81250000 0.62500000
v 0.18750000 0.81250000 0.42500000
vt 0.42500000 1.00000000
vt 0.62500000 1.00000000
vt 0.62500000 0.18750000
vt 0.42500000 0.18750000
vn -1.00000000 0.00000000 0.00000000
vn -1.00000000 0.00000000 0.00000000
vn -1.00000000 0.00000000 0.00000000
vn -1.00000000 0.00000000 0.00000000
usemtl stone
f 69/69/69 70/70/70 71/71/71 72/72/72
v 0.60982143 1.27910714 0.37500000
v 0.64969388 1.00000000 0.37500000
v 0.36560268 1.00000000 0.37500000
vt 0.60982143 0.72089286
vt 0.64969388 1.00000000
vt 0.36560268 1.00000000
vn 0.00000000 0.00000000 -1.00000000
vn 0.00000000 0.00000000 -1.00000000
vn 0.00000000 0.00000000 -1.00000000
usemtl stone
f 73/73/73 74/74/74 75/75/75
v 0.43825893 1.79379464 0.37500000
v 0.60982143 1.27910714 0.37500000
v 0.36560268 1.00000000 0.37500000
v 0.25148372 1.00000000 0.37500000
vt 0.43825893 0.20620536
vt 0.60982143 0.72089286
vt 0.36560268 1.00000000
vt 0.25148372 1.00000000
vn 0.00000000 0.00000000 -1.00000000
vn 0.00000000 0.00000000 -1.00000000
vn 0.00000000 0.00000000 -1.00000000
vn 0.00000000 0.00000000 -1.00000000
usemtl stone
f 76/76/76 77/77/77 78/78/78 79/79/79
v 0.21889803 1.00000000 0.37500000
v 0.26669643 1.90816964 0.37500000
v 0.43825893 1.79379464 0.37500000
v 0.25148372 1.00000000 0.37500000
vt 0.21889803 1.00000000
vt 0.26669643 0.09183036
vt 0.43825893 0.20620536
vt 0.25148372 1.00000000
vn -0.00000000 0.00000000 -1.00000000
vn -0.00000000 0.00000000 -1.00000000
vn -0.00000000 0.00000000 -1.00000000
vn -0.00000000 0.00000000 -1.00000000
usemtl stone
f 80/80/80 81/81/81 82/82/82 83/83/83
v 0.66964286 1.00000000 0.62500000
v 0.62500000 1.31250000 0.62500000
v 0.35156250 1.00000000 0.62500000
vt 0.66964286 1.00000000
vt 0.62500000 0.68750000
vt 0.35156250 1.00000000
vn 0.00000000 0.00000000 1.00000000
vn 0.00000000 0.00000000 1.00000000
vn 0.00000000 0.00000000 1.00000000
usemtl stone
f 84/84/84 85/85/85 86/86/86
v 0.35156250 1.00000000 0.62500000
v 0.62500000 1.31250000 0.62500000
v 0.43750000 1.87500000 0.62500000
v 0.23161765 1.00000000 0.62500000
vt 0.35156250 1.00000000
vt 0.62500000 0.68750000
vt 0.43750000 0.12500000
vt 0.23161765 1.00000000
vn 0.00000000 0.00000000 1.00000000
vn 0.00000000 0.00000000 1.00000000
vn 0.00000000 0.00000000 1.00000000
vn 0.00000000 0.00000000 1.00000000
usemtl stone
f 87/87/87 88/88/88 89/89/89 90/90/90
v 0.43750000 1.87500000 0.62500000
v 0.25000000 2.00000000 0.62500000
v 0.19736842 1.00000000 0.62500000
v 0.23161765 1.00000000 0.62500000
vt 0.43750000 0.12500000
vt 0.25000000 0.00000000
vt 0.19736842 1.00000000
vt 0.23161765 1.00000000
vn 0.00000000 0.00000000 1.00000000
vn 0.00000000 0.00000000 1.00000000
vn 0.00000000 0.00000000 1.00000000
vn 0.00000000 0.00000000 1.00000000
usemtl stone
f 91/91/91 92/92/92 93/93/93 94/94/94
v 0.60982143 1.27910714 0.37500000
v 0.62500000 1.31250000 0.42500000
v 0.66964286 1.00000000 0.42500000
v 0.64969388 1.00000000 0.37500000
vt 0.37500000 0.72089286
vt 0.42500000 0.68750000
vt 0.42500000 1.00000000
vt 0.37500000 1.00000000
vn 0.92073347 0.13153335 -0.36735386
vn 0.92073347 0.13153335 -0.36735386
vn 0.92073347 0.13153335 -0.36735386
vn 0.92073347 0.13153335 -0.36735386
usemtl edge
f 95/95/95 96/96/96 97/97/97 98/98/98
v 0.62500000 1.31250000 0.42500000
v 0.62500000 1.31250000 0.62500000
v 0.66964286 1.00000000 0.62500000
v 0.66964286 1.00000000 0.42500000
vt 0.42500000 0.68750000
vt 0.62500000 0.68750000
vt 0.62500000 1.00000000
vt 0.42500000 1.00000000
vn 0.98994949 0.14142136 0.00000000
vn 0.98994949 0.14142136 0.00000000
vn 0.98994949 0.14142136 0.00000000
vn 0.98994949 0.14142136 0.00000000
usemtl stone
f 99/99/99 100/100/100 101/101/101 102/102/102
v 0.43825893 1.79379464 0.37500000
v 0.43750000 1.87500000 0.42500000
v 0.62500000 1.31250000 0.42500000
v 0.60982143 1.27910714 0.37500000
vt 0.37500000 0.20620536
vt 0.42500000 0.12500000
vt 0.42500000 0.68750000
vt 0.37500000 0.72089286
vn 0.84880361 0.28293454 -0.44663238
vn 0.84880361 0.28293454 -0.44663238
vn 0.84880361 0.28293454 -0.44663238
vn 0.84880361 0.28293454 -0.44663238
usemtl edge
f 103/103/103 104/104/104 105/105/105 106/106/106
v 0.43750000 1.87500000 0.42500000
v 0.43750000 1.87500000 0.62500000
v 0.62500000 1.31250000 0.62500000
v 0.62500000 1.31250000 0.42500000
vt 0.42500000 0.12500000
vt 0.62500000 0.12500000
vt 0.62500000 0.68750000
vt 0.42500000 0.68750000
vn 0.94868330 0.31622777 0.00000000
vn 0.94868330 0.31622777 0.00000000
vn 0.94868330 0.31622777 0.00000000
vn 0.94868330 0.31622777 0.00000000
usemtl stone
f 107/107/107 108/108/108 109/109/109 110/110/110
v 0.26669643 1.90816964 0.37500000
v 0.25000000 2.00000000 0.42500000
v 0.43750000 1.87500000 0.42500000
v 0.43825893 1.79379464 0.37500000
vt 0.26669643 0.09183036
vt 0.25000000 0.00000000
vt 0.43750000 0.12500000
vt 0.43825893 0.20620536
vn 0.33129379 0.49694068 -0.80205635
vn 0.33129379 0.49694068 -0.80205635
vn 0.33129379 0.49694068 -0.80205635
vn 0.33129379 0.49694068 -0.80205635
usemtl edge
f 111/111/111 112/112/112 113/113/113 114/114/114
v 0.25000000 2.00000000 0.42500000
v 0.25000000 2.00000000 0.62500000
v 0.43750000 1.87500000 0.62500000
v 0.43750000 1.87500000 0.42500000
vt 0.25000000 0.42500000
vt 0.25000000 0.62500000
vt 0.43750000 0.62500000
vt 0.43750000 0.42500000
vn 0.55470020 0.83205029 0.00000000
vn 0.55470020 0.83205029 0.00000000
vn 0.55470020 0.83205029 0.00000000
vn 0.55470020 0.83205029 0.00000000
usemtl stone
f 115/115/115 116/116/116 117/117/117 118/118/118
v 0.19736842 1.00000000 0.42500000
v 0.25000000 2.00000000 0.42500000
v 0.26669643 1.90816964 0.37500000
v 0.21889803 1.00000000 0.37500000
vt 0.42500000 1.00000000
vt 0.42500000 0.00000000
vt 0.37500000 0.09183036
vt 0.37500000 1.00000000
vn -0.91740044 0.04828423 -0.39502539
vn -0.91740044 0.04828423 -0.39502539
vn -0.91740044 0.04828423 -0.39502539
vn -0.91740044 0.04828423 -0.39502539
usemtl edge
f 119/119/119 120/120/120 121/121/121 122/122/122
v 0.19736842 1.00000000 0.62500000
v 0.25000000 2.00000000 0.62500000
v 0.25000000 2.00000000 0.42500000
v 0.19736842 1.00000000 0.42500000
vt 0.62500000 1.00000000
vt 0.62500000 0.00000000
vt 0.42500000 0.00000000
vt 0.42500000 1.00000000
vn -0.99861783 0.05255883 0.00000000
vn -0.99861783 0.05255883 0.00000000
vn -0.99861783 0.05255883 0.00000000
vn -0.99861783 0.05255883 0.00000000
usemtl stone
f 123/123/123 124/124/124 125/125/125 126/126/126
