# Authored Vestige native monolith; units are blocks.
mtllib standing_stones.mtl
o monolith
v 0.56250000 0.00000000 0.31250000
v 0.10000000 0.00000000 0.31250000
v 0.33125000 0.88169643 0.31250000
vt 0.56250000 1.00000000
vt 0.10000000 1.00000000
vt 0.33125000 0.11830357
vn 0.00000000 0.00000000 -1.00000000
vn 0.00000000 0.00000000 -1.00000000
vn 0.00000000 0.00000000 -1.00000000
usemtl stone
f 1/1/1 2/2/2 3/3/3
v 0.73593750 0.59263393 0.31250000
v 0.56250000 0.00000000 0.31250000
v 0.33125000 0.88169643 0.31250000
vt 0.73593750 0.40736607
vt 0.56250000 1.00000000
vt 0.33125000 0.11830357
vn 0.00000000 0.00000000 -1.00000000
vn 0.00000000 0.00000000 -1.00000000
vn 0.00000000 0.00000000 -1.00000000
usemtl stone
f 4/4/4 5/5/5 6/6/6
v 0.78386292 1.00000000 0.31250000
v 0.73593750 0.59263393 0.31250000
v 0.33125000 0.88169643 0.31250000
v 0.41997768 1.00000000 0.31250000
vt 0.78386292 0.00000000
vt 0.73593750 0.40736607
vt 0.33125000 0.11830357
vt 0.41997768 0.00000000
vn -0.00000000 0.00000000 -1.00000000
vn -0.00000000 0.00000000 -1.00000000
vn -0.00000000 0.00000000 -1.00000000
vn -0.00000000 0.00000000 -1.00000000
usemtl stone
f 7/7/7 8/8/8 9/9/9 10/10/10
v 0.41997768 1.00000000 0.31250000
v 0.33125000 0.88169643 0.31250000
v 0.37996324 1.00000000 0.31250000
vt 0.41997768 0.00000000
vt 0.33125000 0.11830357
vt 0.37996324 0.00000000
vn 0.00000000 0.00000000 -1.00000000
vn 0.00000000 0.00000000 -1.00000000
vn 0.00000000 0.00000000 -1.00000000
usemtl stone
f 11/11/11 12/12/12 13/13/13
v 0.33125000 0.88169643 0.31250000
v 0.37350128 1.00000000 0.31250000
v 0.37996324 1.00000000 0.31250000
vt 0.33125000 0.11830357
vt 0.37350128 0.00000000
vt 0.37996324 0.00000000
vn 0.00000000 0.00000000 -1.00000000
vn 0.00000000 0.00000000 -1.00000000
vn 0.00000000 0.00000000 -1.00000000
usemtl stone
f 14/14/14 15/15/15 16/16/16
v 0.31250000 0.87500000 0.62500000
v 0.06250000 0.00000000 0.62500000
v 0.56250000 0.00000000 0.62500000
vt 0.31250000 0.12500000
vt 0.06250000 1.00000000
vt 0.56250000 1.00000000
vn 0.00000000 0.00000000 1.00000000
vn 0.00000000 0.00000000 1.00000000
vn 0.00000000 0.00000000 1.00000000
usemtl stone
f 17/17/17 18/18/18 19/19/19
v 0.31250000 0.87500000 0.62500000
v 0.56250000 0.00000000 0.62500000
v 0.75000000 0.56250000 0.62500000
vt 0.31250000 0.12500000
vt 0.56250000 1.00000000
vt 0.75000000 0.43750000
vn 0.00000000 0.00000000 1.00000000
vn 0.00000000 0.00000000 1.00000000
vn 0.00000000 0.00000000 1.00000000
usemtl stone
f 20/20/20 21/21/21 22/22/22
v 0.31250000 0.87500000 0.62500000
v 0.75000000 0.56250000 0.62500000
v 0.80147059 1.00000000 0.62500000
v 0.40625000 1.00000000 0.62500000
vt 0.31250000 0.12500000
vt 0.75000000 0.43750000
vt 0.80147059 0.00000000
vt 0.40625000 0.00000000
vn 0.00000000 0.00000000 1.00000000
vn 0.00000000 0.00000000 1.00000000
vn 0.00000000 0.00000000 1.00000000
vn 0.00000000 0.00000000 1.00000000
usemtl stone
f 23/23/23 24/24/24 25/25/25 26/26/26
v 0.31250000 0.87500000 0.62500000
v 0.40625000 1.00000000 0.62500000
v 0.36397059 1.00000000 0.62500000
vt 0.31250000 0.12500000
vt 0.40625000 0.00000000
vt 0.36397059 0.00000000
vn 0.00000000 0.00000000 1.00000000
vn 0.00000000 0.00000000 1.00000000
vn 0.00000000 0.00000000 1.00000000
usemtl stone
f 27/27/27 28/28/28 29/29/29
v 0.35714286 1.00000000 0.62500000
v 0.31250000 0.87500000 0.62500000
v 0.36397059 1.00000000 0.62500000
vt 0.35714286 0.00000000
vt 0.31250000 0.12500000
vt 0.36397059 0.00000000
vn 0.00000000 0.00000000 1.00000000
vn 0.00000000 0.00000000 1.00000000
vn 0.00000000 0.00000000 1.00000000
usemtl stone
f 30/30/30 31/31/31 32/32/32
v 0.56250000 0.00000000 0.31250000
v 0.56250000 0.00000000 0.37500000
v 0.06250000 0.00000000 0.37500000
v 0.10000000 0.00000000 0.31250000
vt 0.56250000 0.31250000
vt 0.56250000 0.37500000
vt 0.06250000 0.37500000
vt 0.10000000 0.31250000
vn 0.00000000 -1.00000000 0.00000000
vn 0.00000000 -1.00000000 0.00000000
vn 0.00000000 -1.00000000 0.00000000
vn 0.00000000 -1.00000000 0.00000000
usemtl edge
f 33/33/33 34/34/34 35/35/35 36/36/36
v 0.56250000 0.00000000 0.37500000
v 0.56250000 0.00000000 0.62500000
v 0.06250000 0.00000000 0.62500000
v 0.06250000 0.00000000 0.37500000
vt 0.56250000 0.37500000
vt 0.56250000 0.62500000
vt 0.06250000 0.62500000
vt 0.06250000 0.37500000
vn 0.00000000 -1.00000000 0.00000000
vn 0.00000000 -1.00000000 0.00000000
vn 0.00000000 -1.00000000 0.00000000
vn 0.00000000 -1.00000000 0.00000000
usemtl stone
f 37/37/37 38/38/38 39/39/39 40/40/40
v 0.73593750 0.59263393 0.31250000
v 0.75000000 0.56250000 0.37500000
v 0.56250000 0.00000000 0.37500000
v 0.56250000 0.00000000 0.31250000
vt 0.31250000 0.40736607
vt 0.37500000 0.43750000
vt 0.37500000 1.00000000
vt 0.31250000 1.00000000
vn 0.93951099 -0.29356314 -0.17646467
vn 0.93951099 -0.29356314 -0.17646467
vn 0.93951099 -0.29356314 -0.17646467
vn 0.93951099 -0.29356314 -0.17646467
usemtl edge
f 41/41/41 42/42/42 43/43/43 44/44/44
v 0.75000000 0.56250000 0.37500000
v 0.75000000 0.56250000 0.62500000
v 0.56250000 0.00000000 0.62500000
v 0.56250000 0.00000000 0.37500000
vt 0.37500000 0.43750000
vt 0.62500000 0.43750000
vt 0.62500000 1.00000000
vt 0.37500000 1.00000000
vn 0.94868330 -0.31622777 0.00000000
vn 0.94868330 -0.31622777 0.00000000
vn 0.94868330 -0.31622777 0.00000000
vn 0.94868330 -0.31622777 0.00000000
usemtl stone
f 45/45/45 46/46/46 47/47/47 48/48/48
v 0.80147059 1.00000000 0.37500000
v 0.75000000 0.56250000 0.37500000
v 0.73593750 0.59263393 0.31250000
v 0.78386292 1.00000000 0.31250000
vt 0.37500000 0.00000000
vt 0.37500000 0.43750000
vt 0.31250000 0.40736607
vt 0.31250000 0.00000000
vn 0.95641967 -0.11251996 -0.26944512
vn 0.95641967 -0.11251996 -0.26944512
vn 0.95641967 -0.11251996 -0.26944512
vn 0.95641967 -0.11251996 -0.26944512
usemtl edge
f 49/49/49 50/50/50 51/51/51 52/52/52
v 0.80147059 1.00000000 0.62500000
v 0.75000000 0.56250000 0.62500000
v 0.75000000 0.56250000 0.37500000
v 0.80147059 1.00000000 0.37500000
vt 0.62500000 0.00000000
vt 0.62500000 0.43750000
vt 0.37500000 0.43750000
vt 0.37500000 0.00000000
vn 0.99315060 -0.11684125 0.00000000
vn 0.99315060 -0.11684125 0.00000000
vn 0.99315060 -0.11684125 0.00000000
vn 0.99315060 -0.11684125 0.00000000
usemtl stone
f 53/53/53 54/54/54 55/55/55 56/56/56
v 0.33125000 0.88169643 0.31250000
v 0.31250000 0.87500000 0.37500000
v 0.35714286 1.00000000 0.37500000
v 0.37350128 1.00000000 0.31250000
vt 0.31250000 0.11830357
vt 0.37500000 0.12500000
vt 0.37500000 0.00000000
vt 0.31250000 0.00000000
vn -0.91437476 0.32656241 -0.23932360
vn -0.91437476 0.32656241 -0.23932360
vn -0.91437476 0.32656241 -0.23932360
vn -0.91437476 0.32656241 -0.23932360
usemtl edge
f 57/57/57 58/58/58 59/59/59 60/60/60
v 0.31250000 0.87500000 0.37500000
v 0.31250000 0.87500000 0.62500000
v 0.35714286 1.00000000 0.62500000
v 0.35714286 1.00000000 0.37500000
vt 0.37500000 0.12500000
vt 0.62500000 0.12500000
vt 0.62500000 0.00000000
vt 0.37500000 0.00000000
vn -0.94174191 0.33633640 0.00000000
vn -0.94174191 0.33633640 0.00000000
vn -0.94174191 0.33633640 0.00000000
vn -0.94174191 0.33633640 0.00000000
usemtl stone
f 61/61/61 62/62/62 63/63/63 64/64/64
v 0.10000000 0.00000000 0.31250000
v 0.06250000 0.00000000 0.37500000
v 0.31250000 0.87500000 0.37500000
v 0.33125000 0.88169643 0.31250000
vt 0.31250000 1.00000000
vt 0.37500000 1.00000000
vt 0.37500000 0.12500000
vt 0.31250000 0.11830357
vn -0.88926433 0.24361549 -0.38711812
vn -0.88926433 0.24361549 -0.38711812
vn -0.88926433 0.24361549 -0.38711812
vn -0.88926433 0.24361549 -0.38711812
usemtl edge
f 65/65/65 66/66/66 67/67/67 68/68/68
v 0.06250000 0.00000000 0.37500000
v 0.06250000 0.00000000 0.62500000
v 0.31250000 0.87500000 0.62500000
v 0.31250000 0.87500000 0.37500000
vt 0.37500000 1.00000000
vt 0.62500000 1.00000000
vt 0.62500000 0.12500000
vt 0.37500000 0.12500000
vn -0.96152395 0.27472113 0.00000000
vn -0.96152395 0.27472113 0.00000000
vn -0.96152395 0.27472113 0.00000000
vn -0.96152395 0.27472113 0.00000000
usemtl stone
f 69/69/69 70/70/70 71/71/71 72/72/72
