# Authored Vestige native monolith; units are blocks.
mtllib standing_stones.mtl
o monolith
v 0.66982143 0.33160714 0.25000000
v 0.74634615 0.00000000 0.25000000
v 0.24346939 0.00000000 0.25000000
vt 0.66982143 0.66839286
vt 0.74634615 1.00000000
vt 0.24346939 1.00000000
vn 0.00000000 0.00000000 -1.00000000
vn 0.00000000 0.00000000 -1.00000000
vn 0.00000000 0.00000000 -1.00000000
usemtl stone
f 1/1/1 2/2/2 3/3/3
v 0.49919643 0.72973214 0.25000000
v 0.66982143 0.33160714 0.25000000
v 0.24346939 0.00000000 0.25000000
v 0.18645408 0.00000000 0.25000000
vt 0.49919643 0.27026786
vt 0.66982143 0.66839286
vt 0.24346939 1.00000000
vt 0.18645408 1.00000000
vn 0.00000000 0.00000000 -1.00000000
vn 0.00000000 0.00000000 -1.00000000
vn 0.00000000 0.00000000 -1.00000000
vn 0.00000000 0.00000000 -1.00000000
usemtl stone
f 4/4/4 5/5/5 6/6/6 7/7/7
v 0.17125000 0.00000000 0.25000000
v 0.27169643 0.50223214 0.25000000
v 0.49919643 0.72973214 0.25000000
v 0.18645408 0.00000000 0.25000000
vt 0.17125000 1.00000000
vt 0.27169643 0.49776786
vt 0.49919643 0.27026786
vt 0.18645408 1.00000000
vn 0.00000000 0.00000000 -1.00000000
vn 0.00000000 0.00000000 -1.00000000
vn 0.00000000 0.00000000 -1.00000000
vn 0.00000000 0.00000000 -1.00000000
usemtl stone
f 8/8/8 9/9/9 10/10/10 11/11/11
v 0.77403846 0.00000000 0.75000000
v 0.68750000 0.37500000 0.75000000
v 0.20535714 0.00000000 0.75000000
vt 0.77403846 1.00000000
vt 0.68750000 0.62500000
vt 0.20535714 1.00000000
vn 0.00000000 0.00000000 1.00000000
vn 0.00000000 0.00000000 1.00000000
vn 0.00000000 0.00000000 1.00000000
usemtl stone
f 12/12/12 13/13/13 14/14/14
v 0.20535714 0.00000000 0.75000000
v 0.68750000 0.37500000 0.75000000
v 0.50000000 0.81250000 0.75000000
v 0.15178571 0.00000000 0.75000000
vt 0.20535714 1.00000000
vt 0.68750000 0.62500000
vt 0.50000000 0.18750000
vt 0.15178571 1.00000000
vn 0.00000000 0.00000000 1.00000000
vn 0.00000000 0.00000000 1.00000000
vn 0.00000000 0.00000000 1.00000000
vn 0.00000000 0.00000000 1.00000000
usemtl stone
f 15/15/15 16/16/16 17/17/17 18/18/18
v 0.50000000 0.81250000 0.75000000
v 0.25000000 0.56250000 0.75000000
v 0.13750000 0.00000000 0.75000000
v 0.15178571 0.00000000 0.75000000
vt 0.50000000 0.18750000
vt 0.25000000 0.43750000
vt 0.13750000 1.00000000
vt 0.15178571 1.00000000
vn 0.00000000 0.00000000 1.00000000
vn 0.00000000 0.00000000 1.00000000
vn 0.00000000 0.00000000 1.00000000
vn 0.00000000 0.00000000 1.00000000
usemtl stone
f 19/19/19 20/20/20 21/21/21 22/22/22
v 0.66982143 0.33160714 0.25000000
v 0.68750000 0.37500000 0.32500000
v 0.77403846 0.00000000 0.32500000
v 0.74634615 0.00000000 0.25000000
vt 0.25000000 0.66839286
vt 0.32500000 0.62500000
vt 0.32500000 1.00000000
vt 0.25000000 1.00000000
vn 0.91685808 0.21158263 -0.33853221
vn 0.91685808 0.21158263 -0.33853221
vn 0.91685808 0.21158263 -0.33853221
vn 0.91685808 0.21158263 -0.33853221
usemtl edge
f 23/23/23 24/24/24 25/25/25 26/26/26
v 0.68750000 0.37500000 0.32500000
v 0.68750000 0.37500000 0.75000000
v 0.77403846 0.00000000 0.75000000
v 0.77403846 0.00000000 0.32500000
vt 0.32500000 0.62500000
vt 0.75000000 0.62500000
vt 0.75000000 1.00000000
vt 0.32500000 1.00000000
vn 0.97439120 0.22485951 0.00000000
vn 0.97439120 0.22485951 0.00000000
vn 0.97439120 0.22485951 0.00000000
vn 0.97439120 0.22485951 0.00000000
usemtl stone
f 27/27/27 28/28/28 29/29/29 30/30/30
v 0.49919643 0.72973214 0.25000000
v 0.50000000 0.81250000 0.32500000
v 0.68750000 0.37500000 0.32500000
v 0.66982143 0.33160714 0.25000000
vt 0.25000000 0.27026786
vt 0.32500000 0.18750000
vt 0.32500000 0.62500000
vt 0.25000000 0.66839286
vn 0.83988743 0.35995176 -0.40623127
vn 0.83988743 0.35995176 -0.40623127
vn 0.83988743 0.35995176 -0.40623127
vn 0.83988743 0.35995176 -0.40623127
usemtl edge
f 31/31/31 32/32/32 33/33/33 34/34/34
v 0.50000000 0.81250000 0.32500000
v 0.50000000 0.81250000 0.75000000
v 0.68750000 0.37500000 0.75000000
v 0.68750000 0.37500000 0.32500000
vt 0.32500000 0.18750000
vt 0.75000000 0.18750000
vt 0.75000000 0.62500000
vt 0.32500000 0.62500000
vn 0.91914503 0.39391930 0.00000000
vn 0.91914503 0.39391930 0.00000000
vn 0.91914503 0.39391930 0.00000000
vn 0.91914503 0.39391930 0.00000000
usemtl stone
f 35/35/35 36/36/36 37/37/37 38/38/38
v 0.27169643 0.50223214 0.25000000
v 0.25000000 0.56250000 0.32500000
v 0.50000000 0.81250000 0.32500000
v 0.49919643 0.72973214 0.25000000
vt 0.27169643 0.49776786
vt 0.25000000 0.43750000
vt 0.50000000 0.18750000
vt 0.49919643 0.27026786
vn -0.55951232 0.55951232 -0.61146703
vn -0.55951232 0.55951232 -0.61146703
vn -0.55951232 0.55951232 -0.61146703
vn -0.55951232 0.55951232 -0.61146703
usemtl edge
f 39/39/39 40/40/40 41/41/41 42/42/42
v 0.25000000 0.56250000 0.32500000
v 0.25000000 0.56250000 0.75000000
v 0.50000000 0.81250000 0.75000000
v 0.50000000 0.81250000 0.32500000
vt 0.32500000 0.43750000
vt 0.75000000 0.43750000
vt 0.75000000 0.18750000
vt 0.32500000 0.18750000
vn -0.70710678 0.70710678 0.00000000
vn -0.70710678 0.70710678 0.00000000
vn -0.70710678 0.70710678 0.00000000
vn -0.70710678 0.70710678 0.00000000
usemtl stone
f 43/43/43 44/44/44 45/45/45 46/46/46
v 0.13750000 0.00000000 0.32500000
v 0.25000000 0.56250000 0.32500000
v 0.27169643 0.50223214 0.25000000
v 0.17125000 0.00000000 0.25000000
vt 0.32500000 1.00000000
vt 0.32500000 0.43750000
vt 0.25000000 0.49776786
vt 0.25000000 1.00000000
vn -0.89712261 0.17942452 -0.40370517
vn -0.89712261 0.17942452 -0.40370517
vn -0.89712261 0.17942452 -0.40370517
vn -0.89712261 0.17942452 -0.40370517
usemtl edge
f 47/47/47 48/48/48 49/49/49 50/50/50
v 0.13750000 0.00000000 0.75000000
v 0.25000000 0.56250000 0.75000000
v 0.25000000 0.56250000 0.32500000
v 0.13750000 0.00000000 0.32500000
vt 0.75000000 1.00000000
vt 0.75000000 0.43750000
vt 0.32500000 0.43750000
vt 0.32500000 1.00000000
vn -0.98058068 0.19611614 0.00000000
vn -0.98058068 0.19611614 0.00000000
vn -0.98058068 0.19611614 0.00000000
vn -0.98058068 0.19611614 0.00000000
usemtl stone
f 51/51/51 52/52/52 53/53/53 54/54/54
