# Authored Vestige native monolith; units are blocks.
mtllib standing_stones.mtl
o monolith
v 0.89732143 0.00000000 0.25000000
v 0.10107143 0.00000000 0.25000000
v 0.15794643 0.93348214 0.25000000
vt 0.89732143 1.00000000
vt 0.10107143 1.00000000
vt 0.15794643 0.06651786
vn 0.00000000 0.00000000 -1.00000000
vn 0.00000000 0.00000000 -1.00000000
vn 0.00000000 0.00000000 -1.00000000
usemtl stone
f 1/1/1 2/2/2 3/3/3
v 0.84044643 0.59223214 0.25000000
v 0.89732143 0.00000000 0.25000000
v 0.15794643 0.93348214 0.25000000
vt 0.84044643 0.40776786
vt 0.89732143 1.00000000
vt 0.15794643 0.06651786
vn 0.00000000 0.00000000 -1.00000000
vn 0.00000000 0.00000000 -1.00000000
vn 0.00000000 0.00000000 -1.00000000
usemtl stone
f 4/4/4 5/5/5 6/6/6
v 0.74634615 1.00000000 0.25000000
v 0.84044643 0.59223214 0.25000000
v 0.15794643 0.93348214 0.25000000
v 0.24346939 1.00000000 0.25000000
vt 0.74634615 0.00000000
vt 0.84044643 0.40776786
vt 0.15794643 0.06651786
vt 0.24346939 0.00000000
vn 0.00000000 0.00000000 -1.00000000
vn 0.00000000 0.00000000 -1.00000000
vn 0.00000000 0.00000000 -1.00000000
vn 0.00000000 0.00000000 -1.00000000
usemtl stone
f 7/7/7 8/8/8 9/9/9 10/10/10
v 0.24346939 1.00000000 0.25000000
v 0.15794643 0.93348214 0.25000000
v 0.18645408 1.00000000 0.25000000
vt 0.24346939 0.00000000
vt 0.15794643 0.06651786
vt 0.18645408 0.00000000
vn 0.00000000 0.00000000 -1.00000000
vn 0.00000000 0.00000000 -1.00000000
vn 0.00000000 0.00000000 -1.00000000
usemtl stone
f 11/11/11 12/12/12 13/13/13
v 0.15794643 0.93348214 0.25000000
v 0.17125000 1.00000000 0.25000000
v 0.18645408 1.00000000 0.25000000
vt 0.15794643 0.06651786
vt 0.17125000 0.00000000
vt 0.18645408 0.00000000
vn 0.00000000 0.00000000 -1.00000000
vn 0.00000000 0.00000000 -1.00000000
vn 0.00000000 0.00000000 -1.00000000
usemtl stone
f 14/14/14 15/15/15 16/16/16
v 0.12500000 0.93750000 0.75000000
v 0.06250000 0.00000000 0.75000000
v 0.93750000 0.00000000 0.75000000
vt 0.12500000 0.06250000
vt 0.06250000 1.00000000
vt 0.93750000 1.00000000
vn 0.00000000 0.00000000 1.00000000
vn 0.00000000 0.00000000 1.00000000
vn 0.00000000 0.00000000 1.00000000
usemtl stone
f 17/17/17 18/18/18 19/19/19
v 0.12500000 0.93750000 0.75000000
v 0.93750000 0.00000000 0.75000000
v 0.87500000 0.56250000 0.75000000
vt 0.12500000 0.06250000
vt 0.93750000 1.00000000
vt 0.87500000 0.43750000
vn 0.00000000 0.00000000 1.00000000
vn 0.00000000 0.00000000 1.00000000
vn 0.00000000 0.00000000 1.00000000
usemtl stone
f 20/20/20 21/21/21 22/22/22
v 0.12500000 0.93750000 0.75000000
v 0.87500000 0.56250000 0.75000000
v 0.77403846 1.00000000 0.75000000
v 0.20535714 1.00000000 0.75000000
vt 0.12500000 0.06250000
vt 0.87500000 0.43750000
vt 0.77403846 0.00000000
vt 0.20535714 0.00000000
vn 0.00000000 0.00000000 1.00000000
vn 0.00000000 0.00000000 1.00000000
vn 0.00000000 0.00000000 1.00000000
vn 0.00000000 0.00000000 1.00000000
usemtl stone
f 23/23/23 24/24/24 25/25/25 26/26/26
v 0.12500000 0.93750000 0.75000000
v 0.20535714 1.00000000 0.75000000
v 0.15178571 1.00000000 0.75000000
vt 0.12500000 0.06250000
vt 0.20535714 0.00000000
vt 0.15178571 0.00000000
vn 0.00000000 0.00000000 1.00000000
vn 0.00000000 0.00000000 1.00000000
vn 0.00000000 0.00000000 1.00000000
usemtl stone
f 27/27/27 28/28/28 29/29/29
v 0.13750000 1.00000000 0.75000000
v 0.12500000 0.93750000 0.75000000
v 0.15178571 1.00000000 0.75000000
vt 0.13750000 0.00000000
vt 0.12500000 0.06250000
vt 0.15178571 0.00000000
vn 0.00000000 0.00000000 1.00000000
vn 0.00000000 0.00000000 1.00000000
vn 0.00000000 0.00000000 1.00000000
usemtl stone
f 30/30/30 31/31/31 32/32/32
v 0.89732143 0.00000000 0.25000000
v 0.93750000 0.00000000 0.32500000
v 0.06250000 0.00000000 0.32500000
v 0.10107143 0.00000000 0.25000000
vt 0.89732143 0.25000000
vt 0.93750000 0.32500000
vt 0.06250000 0.32500000
vt 0.10107143 0.25000000
vn 0.00000000 -1.00000000 0.00000000
vn 0.00000000 -1.00000000 0.00000000
vn 0.00000000 -1.00000000 0.00000000
vn 0.00000000 -1.00000000 0.00000000
usemtl edge
f 33/33/33 34/34/34 35/35/35 36/36/36
v 0.93750000 0.00000000 0.32500000
v 0.93750000 0.00000000 0.75000000
v 0.06250000 0.00000000 0.75000000
v 0.06250000 0.00000000 0.32500000
vt 0.93750000 0.32500000
vt 0.93750000 0.75000000
vt 0.06250000 0.75000000
vt 0.06250000 0.32500000
vn 0.00000000 -1.00000000 0.00000000
vn 0.00000000 -1.00000000 0.00000000
vn 0.00000000 -1.00000000 0.00000000
vn 0.00000000 -1.00000000 0.00000000
usemtl stone
f 37/37/37 38/38/38 39/39/39 40/40/40
v 0.84044643 0.59223214 0.25000000
v 0.87500000 0.56250000 0.32500000
v 0.93750000 0.00000000 0.32500000
v 0.89732143 0.00000000 0.25000000
vt 0.25000000 0.40776786
vt 0.32500000 0.43750000
vt 0.32500000 1.00000000
vt 0.25000000 1.00000000
vn 0.89842271 0.09287800 -0.42919728
vn 0.89842271 0.09287800 -0.42919728
vn 0.89842271 0.09287800 -0.42919728
vn 0.89842271 0.09287800 -0.42919728
usemtl edge
f 41/41/41 42/42/42 43/43/43 44/44/44
v 0.87500000 0.56250000 0.32500000
v 0.87500000 0.56250000 0.75000000
v 0.93750000 0.00000000 0.75000000
v 0.93750000 0.00000000 0.32500000
vt 0.32500000 0.43750000
vt 0.75000000 0.43750000
vt 0.75000000 1.00000000
vt 0.32500000 1.00000000
vn 0.99388373 0.11043153 0.00000000
vn 0.99388373 0.11043153 0.00000000
vn 0.99388373 0.11043153 0.00000000
vn 0.99388373 0.11043153 0.00000000
usemtl stone
f 45/45/45 46/46/46 47/47/47 48/48/48
v 0.77403846 1.00000000 0.32500000
v 0.87500000 0.56250000 0.32500000
v 0.84044643 0.59223214 0.25000000
v 0.74634615 1.00000000 0.25000000
vt 0.32500000 0.00000000
vt 0.32500000 0.43750000
vt 0.25000000 0.40776786
vt 0.25000000 0.00000000
vn 0.91685808 0.21158263 -0.33853221
vn 0.91685808 0.21158263 -0.33853221
vn 0.91685808 0.21158263 -0.33853221
vn 0.91685808 0.21158263 -0.33853221
usemtl edge
f 49/49/49 50/50/50 51/51/51 52/52/52
v 0.77403846 1.00000000 0.75000000
v 0.87500000 0.56250000 0.75000000
v 0.87500000 0.56250000 0.32500000
v 0.77403846 1.00000000 0.32500000
vt 0.75000000 0.00000000
vt 0.75000000 0.43750000
vt 0.32500000 0.43750000
vt 0.32500000 0.00000000
vn 0.97439120 0.22485951 0.00000000
vn 0.97439120 0.22485951 0.00000000
vn 0.97439120 0.22485951 0.00000000
vn 0.97439120 0.22485951 0.00000000
usemtl stone
f 53/53/53 54/54/54 55/55/55 56/56/56
v 0.15794643 0.93348214 0.25000000
v 0.12500000 0.93750000 0.32500000
v 0.13750000 1.00000000 0.32500000
v 0.17125000 1.00000000 0.25000000
vt 0.25000000 0.06651786
vt 0.32500000 0.06250000
vt 0.32500000 0.00000000
vt 0.25000000 0.00000000
vn -0.89712261 0.17942452 -0.40370517
vn -0.89712261 0.17942452 -0.40370517
vn -0.89712261 0.17942452 -0.40370517
vn -0.89712261 0.17942452 -0.40370517
usemtl edge
f 57/57/57 58/58/58 59/59/59 60/60/60
v 0.12500000 0.93750000 0.32500000
v 0.12500000 0.93750000 0.75000000
v 0.13750000 1.00000000 0.75000000
v 0.13750000 1.00000000 0.32500000
vt 0.32500000 0.06250000
vt 0.75000000 0.06250000
vt 0.75000000 0.00000000
vt 0.32500000 0.00000000
vn -0.98058068 0.19611614 0.00000000
vn -0.98058068 0.19611614 0.00000000
vn -0.98058068 0.19611614 0.00000000
vn -0.98058068 0.19611614 0.00000000
usemtl stone
f 61/61/61 62/62/62 63/63/63 64/64/64
v 0.10107143 0.00000000 0.25000000
v 0.06250000 0.00000000 0.32500000
v 0.12500000 0.93750000 0.32500000
v 0.15794643 0.93348214 0.25000000
vt 0.25000000 1.00000000
vt 0.32500000 1.00000000
vt 0.32500000 0.06250000
vt 0.25000000 0.06651786
vn -0.90056179 0.05745889 -0.43091407
vn -0.90056179 0.05745889 -0.43091407
vn -0.90056179 0.05745889 -0.43091407
vn -0.90056179 0.05745889 -0.43091407
usemtl edge
f 65/65/65 66/66/66 67/67/67 68/68/68
v 0.06250000 0.00000000 0.32500000
v 0.06250000 0.00000000 0.75000000
v 0.12500000 0.93750000 0.75000000
v 0.12500000 0.93750000 0.32500000
vt 0.32500000 1.00000000
vt 0.75000000 1.00000000
vt 0.75000000 0.06250000
vt 0.32500000 0.06250000
vn -0.99778516 0.06651901 0.00000000
vn -0.99778516 0.06651901 0.00000000
vn -0.99778516 0.06651901 0.00000000
vn -0.99778516 0.06651901 0.00000000
usemtl stone
f 69/69/69 70/70/70 71/71/71 72/72/72
v 0.66982143 1.33160714 0.25000000
v 0.74634615 1.00000000 0.25000000
v 0.24346939 1.00000000 0.25000000
vt 0.66982143 0.66839286
vt 0.74634615 1.00000000
vt 0.24346939 1.00000000
vn 0.00000000 0.00000000 -1.00000000
vn 0.00000000 0.00000000 -1.00000000
vn 0.00000000 0.00000000 -1.00000000
usemtl stone
f 73/73/73 74/74/74 75/75/75
v 0.49919643 1.72973214 0.25000000
v 0.66982143 1.33160714 0.25000000
v 0.24346939 1.00000000 0.25000000
v 0.18645408 1.00000000 0.25000000
vt 0.49919643 0.27026786
vt 0.66982143 0.66839286
vt 0.24346939 1.00000000
vt 0.18645408 1.00000000
vn 0.00000000 0.00000000 -1.00000000
vn 0.00000000 0.00000000 -1.00000000
vn 0.00000000 0.00000000 -1.00000000
vn 0.00000000 0.00000000 -1.00000000
usemtl stone
f 76/76/76 77/77/77 78/78/78 79/79/79
v 0.17125000 1.00000000 0.25000000
v 0.27169643 1.50223214 0.25000000
v 0.49919643 1.72973214 0.25000000
v 0.18645408 1.00000000 0.25000000
vt 0.17125000 1.00000000
vt 0.27169643 0.49776786
vt 0.49919643 0.27026786
vt 0.18645408 1.00000000
vn 0.00000000 0.00000000 -1.00000000
vn 0.00000000 0.00000000 -1.00000000
vn 0.00000000 0.00000000 -1.00000000
vn 0.00000000 0.00000000 -1.00000000
usemtl stone
f 80/80/80 81/81/81 82/82/82 83/83/83
v 0.77403846 1.00000000 0.75000000
v 0.68750000 1.37500000 0.75000000
v 0.20535714 1.00000000 0.75000000
vt 0.77403846 1.00000000
vt 0.68750000 0.62500000
vt 0.20535714 1.00000000
vn 0.00000000 0.00000000 1.00000000
vn 0.00000000 0.00000000 1.00000000
vn 0.00000000 0.00000000 1.00000000
usemtl stone
f 84/84/84 85/85/85 86/86/86
v 0.20535714 1.00000000 0.75000000
v 0.68750000 1.37500000 0.75000000
v 0.50000000 1.81250000 0.75000000
v 0.15178571 1.00000000 0.75000000
vt 0.20535714 1.00000000
vt 0.68750000 0.62500000
vt 0.50000000 0.18750000
vt 0.15178571 1.00000000
vn 0.00000000 0.00000000 1.00000000
vn 0.00000000 0.00000000 1.00000000
vn 0.00000000 0.00000000 1.00000000
vn 0.00000000 0.00000000 1.00000000
usemtl stone
f 87/87/87 88/88/88 89/89/89 90/90/90
v 0.50000000 1.81250000 0.75000000
v 0.25000000 1.56250000 0.75000000
v 0.13750000 1.00000000 0.75000000
v 0.15178571 1.00000000 0.75000000
vt 0.50000000 0.18750000
vt 0.25000000 0.43750000
vt 0.13750000 1.00000000
vt 0.15178571 1.00000000
vn 0.00000000 0.00000000 1.00000000
vn 0.00000000 0.00000000 1.00000000
vn 0.00000000 0.00000000 1.00000000
vn 0.00000000 0.00000000 1.00000000
usemtl stone
f 91/91/91 92/92/92 93/93/93 94/94/94
v 0.66982143 1.33160714 0.25000000
v 0.68750000 1.37500000 0.32500000
v 0.77403846 1.00000000 0.32500000
v 0.74634615 1.00000000 0.25000000
vt 0.25000000 0.66839286
vt 0.32500000 0.62500000
vt 0.32500000 1.00000000
vt 0.25000000 1.00000000
vn 0.91685808 0.21158263 -0.33853221
vn 0.91685808 0.21158263 -0.33853221
vn 0.91685808 0.21158263 -0.33853221
vn 0.91685808 0.21158263 -0.33853221
usemtl edge
f 95/95/95 96/96/96 97/97/97 98/98/98
v 0.68750000 1.37500000 0.32500000
v 0.68750000 1.37500000 0.75000000
v 0.77403846 1.00000000 0.75000000
v 0.77403846 1.00000000 0.32500000
vt 0.32500000 0.62500000
vt 0.75000000 0.62500000
vt 0.75000000 1.00000000
vt 0.32500000 1.00000000
vn 0.97439120 0.22485951 0.00000000
vn 0.97439120 0.22485951 0.00000000
vn 0.97439120 0.22485951 0.00000000
vn 0.97439120 0.22485951 0.00000000
usemtl stone
f 99/99/99 100/100/100 101/101/101 102/102/102
v 0.49919643 1.72973214 0.25000000
v 0.50000000 1.81250000 0.32500000
v 0.68750000 1.37500000 0.32500000
v 0.66982143 1.33160714 0.25000000
vt 0.25000000 0.27026786
vt 0.32500000 0.18750000
vt 0.32500000 0.62500000
vt 0.25000000 0.66839286
vn 0.83988743 0.35995176 -0.40623127
vn 0.83988743 0.35995176 -0.40623127
vn 0.83988743 0.35995176 -0.40623127
vn 0.83988743 0.35995176 -0.40623127
usemtl edge
f 103/103/103 104/104/104 105/105/105 106/106/106
v 0.50000000 1.81250000 0.32500000
v 0.50000000 1.81250000 0.75000000
v 0.68750000 1.37500000 0.75000000
v 0.68750000 1.37500000 0.32500000
vt 0.32500000 0.18750000
vt 0.75000000 0.18750000
vt 0.75000000 0.62500000
vt 0.32500000 0.62500000
vn 0.91914503 0.39391930 0.00000000
vn 0.91914503 0.39391930 0.00000000
vn 0.91914503 0.39391930 0.00000000
vn 0.91914503 0.39391930 0.00000000
usemtl stone
f 107/107/107 108/108/108 109/109/109 110/110/110
v 0.27169643 1.50223214 0.25000000
v 0.25000000 1.56250000 0.32500000
v 0.50000000 1.81250000 0.32500000
v 0.49919643 1.72973214 0.25000000
vt 0.27169643 0.49776786
vt 0.25000000 0.43750000
vt 0.50000000 0.18750000
vt 0.49919643 0.27026786
vn -0.55951232 0.55951232 -0.61146703
vn -0.55951232 0.55951232 -0.61146703
vn -0.55951232 0.55951232 -0.61146703
vn -0.55951232 0.55951232 -0.61146703
usemtl edge
f 111/111/111 112/112/112 113/113/113 114/114/114
v 0.25000000 1.56250000 0.32500000
v 0.25000000 1.56250000 0.75000000
v 0.50000000 1.81250000 0.75000000
v 0.50000000 1.81250000 0.32500000
vt 0.32500000 0.43750000
vt 0.75000000 0.43750000
vt 0.75000000 0.18750000
vt 0.32500000 0.18750000
vn -0.70710678 0.70710678 0.00000000
vn -0.70710678 0.70710678 0.00000000
vn -0.70710678 0.70710678 0.00000000
vn -0.70710678 0.70710678 0.00000000
usemtl stone
f 115/115/115 116/116/116 117/117/117 118/118/118
v 0.13750000 1.00000000 0.32500000
v 0.25000000 1.56250000 0.32500000
v 0.27169643 1.50223214 0.25000000
v 0.17125000 1.00000000 0.25000000
vt 0.32500000 1.00000000
vt 0.32500000 0.43750000
vt 0.25000000 0.49776786
vt 0.25000000 1.00000000
vn -0.89712261 0.17942452 -0.40370517
vn -0.89712261 0.17942452 -0.40370517
vn -0.89712261 0.17942452 -0.40370517
vn -0.89712261 0.17942452 -0.40370517
usemtl edge
f 119/119/119 120/120/120 121/121/121 122/122/122
v 0.13750000 1.00000000 0.75000000
v 0.25000000 1.56250000 0.75000000
v 0.25000000 1.56250000 0.32500000
v 0.13750000 1.00000000 0.32500000
vt 0.75000000 1.00000000
vt 0.75000000 0.43750000
vt 0.32500000 0.43750000
vt 0.32500000 1.00000000
vn -0.98058068 0.19611614 0.00000000
vn -0.98058068 0.19611614 0.00000000
vn -0.98058068 0.19611614 0.00000000
vn -0.98058068 0.19611614 0.00000000
usemtl stone
f 123/123/123 124/124/124 125/125/125 126/126/126
